<svg xmlns="http://www.w3.org/2000/svg" xmlns:xlink="http://www.w3.org/1999/xlink" width="1500" zoomAndPan="magnify" viewBox="0 0 1125 599.999999" height="800" preserveAspectRatio="xMidYMid meet" version="1.0"><defs><g/><clipPath id="c05b9f0255"><path d="M 1009.214844 506.535156 L 1075.964844 506.535156 L 1075.964844 573.285156 L 1009.214844 573.285156 Z M 1009.214844 506.535156 " clip-rule="nonzero"/></clipPath></defs><rect x="-112.5" width="1350" fill="#ffffff" y="-60" height="719.999999" fill-opacity="1"/><rect x="-112.5" width="1350" fill="#ffffff" y="-60" height="719.999999" fill-opacity="1"/><g fill="#2b738a" fill-opacity="1"><g transform="translate(356.576384, 144.263171)"><g><path d="M 24.175781 -67.789062 C 19.535156 -67.789062 16.535156 -67.691406 15.183594 -67.402344 C 13.730469 -67.207031 12.570312 -66.726562 11.796875 -65.953125 C 11.023438 -65.179688 10.347656 -63.921875 9.863281 -62.179688 C 9.574219 -60.921875 9.089844 -58.214844 8.511719 -54.152344 L 6.382812 -38.390625 L 4.449219 -25.046875 L 1.933594 -7.058594 C 1.835938 -6.285156 1.742188 -5.707031 1.644531 -5.320312 C 1.546875 -4.933594 1.355469 -4.640625 1.160156 -4.253906 C 0.96875 -3.867188 0.484375 -3.289062 -0.195312 -2.609375 C -0.582031 -2.222656 -1.449219 -1.449219 -2.902344 -0.0976562 L 1.644531 -0.0976562 C 5.898438 -0.0976562 8.703125 -0.195312 10.058594 -0.386719 C 11.699219 -0.773438 12.863281 -1.355469 13.636719 -2.128906 C 14.410156 -2.996094 14.988281 -4.351562 15.375 -6.285156 C 15.761719 -7.542969 16.148438 -9.960938 16.632812 -13.539062 L 19.4375 -33.652344 L 22.144531 -52.992188 Z M 24.175781 -67.789062 "/></g></g></g><g fill="#2b738a" fill-opacity="1"><g transform="translate(386.453552, 144.263171)"><g><path d="M 5.800781 -34.234375 L 5.320312 -30.75 L 3.382812 -17.117188 L 2.902344 -13.539062 L 0.96875 0 C 5.125 0 7.832031 -0.0976562 9.089844 -0.195312 C 10.832031 -0.484375 12.183594 -0.96875 12.957031 -1.546875 C 13.925781 -2.320312 14.699219 -3.480469 15.085938 -5.125 C 15.472656 -6.480469 16.050781 -9.285156 16.632812 -13.539062 L 17.117188 -17.117188 L 19.050781 -30.75 C 19.242188 -31.816406 19.339844 -32.492188 19.339844 -32.78125 C 19.535156 -33.363281 19.824219 -33.75 20.015625 -33.941406 C 20.308594 -34.136719 20.597656 -34.234375 20.984375 -34.234375 C 21.179688 -34.328125 21.46875 -34.328125 21.757812 -34.328125 C 22.144531 -34.328125 22.628906 -34.328125 23.113281 -34.234375 L 40.808594 -34.234375 L 40.324219 -30.75 L 38.390625 -17.117188 L 37.90625 -13.539062 L 35.972656 0 C 40.710938 0 43.804688 -0.195312 45.160156 -0.386719 C 46.804688 -0.773438 47.964844 -1.355469 48.738281 -2.222656 C 49.511719 -2.996094 49.996094 -4.253906 50.382812 -5.800781 C 50.769531 -7.058594 51.15625 -9.671875 51.640625 -13.539062 L 52.121094 -17.117188 L 54.058594 -30.75 L 54.539062 -34.234375 C 55.121094 -38.488281 55.410156 -41.292969 55.410156 -42.550781 L 55.410156 -43.226562 C 55.3125 -44.871094 54.832031 -46.03125 54.058594 -46.609375 C 53.476562 -47.191406 52.511719 -47.480469 51.253906 -47.675781 C 50.09375 -47.867188 48.253906 -47.867188 45.644531 -47.867188 L 18.46875 -47.867188 C 15.957031 -47.867188 14.117188 -47.867188 12.957031 -47.675781 C 11.410156 -47.480469 10.25 -47.09375 9.476562 -46.515625 C 8.511719 -45.835938 7.734375 -44.582031 7.15625 -42.742188 C 6.867188 -41.484375 6.382812 -38.679688 5.800781 -34.234375 Z M 5.800781 -34.234375 "/></g></g></g><g fill="#2b738a" fill-opacity="1"><g transform="translate(450.363138, 144.263171)"><g><path d="M 22.242188 -67.691406 L 19.535156 -47.867188 L 17.503906 -47.867188 C 14.601562 -47.867188 12.570312 -47.867188 11.3125 -47.675781 C 9.378906 -47.480469 8.027344 -46.902344 7.058594 -46.128906 C 6.1875 -45.257812 5.511719 -43.613281 4.933594 -41.195312 C 4.738281 -40.035156 4.351562 -37.714844 3.867188 -34.234375 L 17.601562 -34.234375 L 17.117188 -30.75 L 15.183594 -17.117188 L 14.699219 -13.539062 C 14.117188 -9.960938 13.730469 -7.542969 13.539062 -6.285156 L 13.539062 -4.835938 C 13.539062 -3.675781 13.730469 -2.707031 14.117188 -2.03125 C 14.796875 -1.0625 16.34375 -0.386719 18.855469 -0.0976562 C 20.210938 -0.0976562 22.53125 0 25.917969 0 L 34.714844 0 C 38.488281 0 41.003906 -0.0976562 42.257812 -0.195312 C 44.191406 -0.484375 45.644531 -0.96875 46.515625 -1.742188 C 47.289062 -2.515625 47.964844 -3.867188 48.449219 -5.609375 C 48.835938 -6.960938 49.222656 -9.574219 49.707031 -13.539062 L 28.429688 -13.539062 L 28.914062 -17.117188 L 30.847656 -30.75 L 31.332031 -34.234375 L 38.875 -34.234375 C 42.9375 -34.234375 45.546875 -34.328125 46.804688 -34.425781 C 48.738281 -34.714844 50.1875 -35.199219 51.058594 -35.78125 C 51.929688 -36.554688 52.605469 -37.714844 53.089844 -39.261719 C 53.476562 -40.617188 53.960938 -43.417969 54.539062 -47.867188 L 33.265625 -47.867188 L 34.136719 -54.058594 C 34.714844 -57.441406 35.007812 -59.570312 35.007812 -60.441406 C 35.199219 -61.308594 35.199219 -61.988281 35.199219 -62.566406 C 35.199219 -63.628906 35.101562 -64.5 34.8125 -65.082031 C 34.234375 -66.433594 32.6875 -67.207031 29.976562 -67.402344 C 28.527344 -67.59375 25.917969 -67.691406 22.242188 -67.691406 Z M 22.242188 -67.691406 "/></g></g></g><g fill="#2b738a" fill-opacity="1"><g transform="translate(512.049015, 144.263171)"><g><path d="M 5.800781 -34.328125 L 0.96875 0 C 6.1875 0 9.476562 -0.195312 10.832031 -0.484375 C 12.183594 -0.871094 13.152344 -1.449219 13.828125 -2.222656 C 14.601562 -3.09375 15.085938 -4.449219 15.472656 -6.1875 C 15.761719 -7.445312 16.148438 -9.863281 16.632812 -13.539062 L 18.953125 -30.269531 C 19.148438 -31.523438 19.339844 -32.300781 19.4375 -32.6875 C 19.628906 -33.265625 19.824219 -33.652344 20.210938 -33.847656 C 20.5 -34.039062 20.886719 -34.234375 21.371094 -34.234375 C 21.855469 -34.328125 22.820312 -34.328125 24.273438 -34.328125 L 40.710938 -34.328125 C 44.773438 -34.328125 47.382812 -34.425781 48.640625 -34.523438 C 50.671875 -34.714844 52.121094 -35.199219 52.992188 -35.972656 C 53.960938 -36.746094 54.636719 -38.101562 55.121094 -39.9375 C 55.507812 -41.292969 55.894531 -43.902344 56.476562 -47.867188 L 19.339844 -47.867188 C 16.050781 -47.867188 13.828125 -47.769531 12.476562 -47.578125 C 10.925781 -47.382812 9.671875 -46.804688 8.898438 -45.933594 C 8.125 -45.160156 7.445312 -43.710938 6.960938 -41.582031 C 6.769531 -40.421875 6.382812 -38.003906 5.800781 -34.328125 Z M 5.800781 -34.328125 "/></g></g></g><g fill="#2b738a" fill-opacity="1"><g transform="translate(575.571865, 144.263171)"><g><path d="M 4.738281 -34.425781 C 3.191406 -22.628906 2.222656 -15.761719 1.835938 -13.730469 C 1.355469 -10.152344 1.0625 -7.734375 0.96875 -6.480469 L 0.96875 -5.320312 C 0.96875 -3.964844 1.257812 -2.902344 1.644531 -2.128906 C 2.222656 -1.355469 3.191406 -0.773438 4.738281 -0.484375 C 6.09375 -0.289062 8.800781 -0.0976562 12.957031 -0.0976562 L 35.683594 -0.0976562 C 40.035156 -0.0976562 42.839844 -0.289062 44.191406 -0.484375 C 46.03125 -0.871094 47.289062 -1.546875 48.0625 -2.707031 C 48.640625 -3.578125 49.125 -4.933594 49.511719 -6.671875 C 49.800781 -7.929688 50.1875 -10.25 50.671875 -13.730469 L 53.574219 -34.425781 C 54.152344 -38.101562 54.445312 -40.617188 54.445312 -41.777344 L 54.445312 -42.742188 C 54.445312 -44.191406 54.25 -45.257812 53.765625 -45.933594 C 53.285156 -46.707031 52.414062 -47.289062 51.253906 -47.480469 C 49.898438 -47.867188 46.902344 -47.964844 42.164062 -47.964844 L 19.921875 -47.964844 C 16.050781 -47.964844 13.441406 -47.964844 12.089844 -47.769531 C 10.152344 -47.578125 8.800781 -46.996094 7.929688 -46.03125 C 6.960938 -45.0625 6.1875 -43.128906 5.609375 -40.132812 C 5.414062 -39.164062 5.125 -37.230469 4.738281 -34.425781 Z M 23.207031 -34.425781 L 39.839844 -34.425781 L 37.425781 -17.214844 C 37.230469 -16.050781 37.132812 -15.375 36.941406 -14.988281 C 36.941406 -14.601562 36.746094 -14.3125 36.554688 -14.117188 C 36.359375 -13.925781 36.070312 -13.828125 35.683594 -13.730469 L 15.570312 -13.730469 L 17.988281 -30.847656 C 18.082031 -31.429688 18.179688 -31.910156 18.179688 -32.105469 C 18.375 -32.976562 18.566406 -33.554688 18.761719 -33.75 C 19.050781 -34.039062 19.535156 -34.234375 20.113281 -34.328125 C 20.597656 -34.425781 21.660156 -34.425781 23.207031 -34.425781 Z M 23.207031 -34.425781 "/></g></g></g><g fill="#2b738a" fill-opacity="1"><g transform="translate(638.514614, 144.263171)"><g><path d="M 42.550781 -54.058594 L 41.679688 -47.964844 L 19.148438 -47.964844 C 15.472656 -47.964844 12.863281 -47.867188 11.507812 -47.578125 C 9.960938 -47.382812 8.703125 -46.804688 7.929688 -46.03125 C 7.15625 -45.257812 6.574219 -44 6.09375 -42.257812 C 5.800781 -41.003906 5.414062 -38.390625 4.835938 -34.328125 C 4.449219 -32.007812 3.964844 -28.625 3.289062 -23.980469 C 2.707031 -19.339844 2.222656 -15.957031 1.933594 -13.636719 C 1.546875 -10.539062 1.257812 -8.511719 1.0625 -7.347656 C 1.0625 -6.574219 0.96875 -5.800781 0.96875 -5.222656 C 0.96875 -3.675781 1.355469 -2.515625 1.933594 -1.742188 C 2.515625 -1.160156 3.480469 -0.675781 4.835938 -0.386719 C 6.1875 -0.195312 9.089844 0 13.539062 0 L 35.199219 0 C 39.550781 0 42.453125 -0.0976562 43.804688 -0.289062 C 45.257812 -0.582031 46.320312 -0.96875 47.09375 -1.449219 C 48.15625 -2.222656 48.933594 -3.675781 49.414062 -5.609375 C 49.800781 -6.867188 50.1875 -9.574219 50.671875 -13.636719 L 51.15625 -17.214844 L 58.214844 -67.691406 C 54.058594 -67.691406 51.347656 -67.691406 49.996094 -67.5 C 48.15625 -67.304688 46.804688 -66.726562 45.933594 -65.953125 C 45.160156 -65.273438 44.484375 -64.015625 44 -62.277344 C 43.613281 -60.921875 43.128906 -58.214844 42.550781 -54.058594 Z M 21.855469 -34.328125 L 39.746094 -34.328125 L 37.425781 -17.214844 C 37.230469 -16.246094 37.132812 -15.664062 36.941406 -15.277344 C 36.84375 -14.699219 36.652344 -14.3125 36.359375 -14.117188 C 36.167969 -13.925781 35.875 -13.828125 35.488281 -13.730469 C 35.101562 -13.730469 34.328125 -13.636719 32.976562 -13.636719 L 15.664062 -13.636719 L 18.082031 -30.75 C 18.277344 -31.71875 18.375 -32.394531 18.375 -32.6875 C 18.566406 -33.265625 18.664062 -33.554688 18.855469 -33.75 C 19.050781 -34.039062 19.4375 -34.234375 19.824219 -34.234375 C 20.210938 -34.328125 20.886719 -34.328125 21.855469 -34.328125 Z M 21.855469 -34.328125 "/></g></g></g><g fill="#2b738a" fill-opacity="1"><g transform="translate(702.327534, 144.263171)"><g><path d="M 6.671875 -47.964844 L 4.835938 -34.328125 C 4.640625 -32.589844 4.253906 -29.496094 3.480469 -24.660156 C 2.804688 -19.921875 2.320312 -16.246094 1.933594 -13.636719 C 1.449219 -10.539062 1.160156 -8.316406 1.0625 -7.15625 C 1.0625 -6.480469 0.96875 -5.800781 0.96875 -5.222656 C 0.96875 -4.0625 1.160156 -3.09375 1.449219 -2.320312 C 2.03125 -1.355469 3.09375 -0.675781 4.835938 -0.386719 C 6.09375 -0.195312 8.316406 0 11.605469 0 L 37.132812 0 C 40.519531 0 42.839844 -0.195312 44.097656 -0.386719 C 45.933594 -0.773438 47.289062 -1.449219 48.0625 -2.515625 C 48.640625 -3.382812 49.222656 -4.738281 49.609375 -6.574219 C 49.898438 -7.832031 50.285156 -10.152344 50.671875 -13.636719 L 53.574219 -34.328125 C 54.058594 -37.90625 54.347656 -40.230469 54.445312 -41.390625 L 54.445312 -42.644531 C 54.445312 -44 54.25 -45.0625 53.863281 -45.742188 C 53.378906 -46.707031 52.316406 -47.382812 50.574219 -47.578125 C 49.320312 -47.867188 46.417969 -47.964844 41.777344 -47.964844 L 39.839844 -34.328125 L 36.941406 -13.636719 L 19.050781 -13.636719 C 17.792969 -13.636719 17.019531 -13.636719 16.632812 -13.730469 C 16.34375 -13.925781 16.148438 -14.023438 15.957031 -14.214844 C 15.957031 -14.410156 15.859375 -14.796875 15.859375 -15.183594 C 15.957031 -15.570312 16.050781 -16.148438 16.148438 -17.117188 L 18.566406 -34.328125 C 19.050781 -38.003906 19.339844 -40.230469 19.339844 -41.003906 C 19.535156 -41.777344 19.535156 -42.453125 19.535156 -43.03125 C 19.535156 -44.386719 19.339844 -45.355469 18.855469 -45.933594 C 18.277344 -46.902344 17.019531 -47.480469 14.988281 -47.675781 C 13.730469 -47.867188 10.925781 -47.964844 6.671875 -47.964844 Z M 6.671875 -47.964844 "/></g></g></g><g fill="#2b738a" fill-opacity="1"><g transform="translate(765.270305, 144.263171)"><g><path d="M 19.148438 -47.867188 C 15.664062 -47.867188 13.25 -47.867188 11.894531 -47.675781 C 10.152344 -47.480469 8.898438 -46.902344 8.027344 -46.128906 C 7.15625 -45.355469 6.480469 -43.902344 5.996094 -41.871094 C 5.800781 -40.710938 5.414062 -38.199219 4.835938 -34.328125 C 4.738281 -33.554688 4.351562 -30.65625 3.578125 -25.433594 C 2.804688 -20.308594 2.320312 -16.34375 1.933594 -13.636719 C 1.355469 -9.765625 1.0625 -7.253906 0.96875 -5.898438 L 0.96875 -5.222656 C 0.96875 -3.867188 1.257812 -2.804688 1.644531 -2.128906 C 2.222656 -1.355469 3.191406 -0.773438 4.546875 -0.386719 C 5.898438 -0.195312 8.898438 0 13.539062 0 L 35.199219 0 C 39.164062 0 41.777344 -0.0976562 43.03125 -0.195312 C 44.96875 -0.386719 46.417969 -0.871094 47.289062 -1.546875 C 48.253906 -2.320312 48.933594 -3.675781 49.320312 -5.414062 C 49.707031 -6.769531 50.09375 -9.476562 50.671875 -13.636719 L 15.664062 -13.636719 L 18.082031 -30.75 C 18.277344 -31.71875 18.375 -32.394531 18.375 -32.6875 C 18.566406 -33.265625 18.761719 -33.652344 18.953125 -33.847656 C 19.148438 -34.039062 19.4375 -34.136719 19.824219 -34.136719 C 20.210938 -34.328125 21.179688 -34.328125 22.53125 -34.328125 L 39.839844 -34.328125 C 43.515625 -34.328125 45.933594 -34.425781 47.191406 -34.425781 C 49.511719 -34.621094 51.253906 -35.199219 52.21875 -36.070312 C 53.089844 -36.84375 53.765625 -38.199219 54.152344 -40.035156 C 54.539062 -41.390625 54.925781 -44 55.507812 -47.867188 Z M 19.148438 -47.867188 "/></g></g></g><g fill="#2b738a" fill-opacity="1"><g transform="translate(827.826319, 144.263171)"><g><path d="M 24.175781 -67.691406 C 19.628906 -67.691406 16.632812 -67.59375 15.277344 -67.402344 C 13.730469 -67.207031 12.476562 -66.628906 11.699219 -65.855469 C 10.925781 -65.082031 10.25 -63.628906 9.765625 -61.503906 C 9.476562 -60.34375 9.089844 -57.828125 8.511719 -54.152344 L 8.21875 -51.542969 L 21.953125 -51.542969 Z M 7.734375 -47.964844 L 4.449219 -24.5625 L 0.96875 0 C 5.800781 0 8.898438 -0.195312 10.25 -0.484375 C 12.089844 -0.871094 13.34375 -1.644531 14.117188 -2.804688 C 14.699219 -3.675781 15.183594 -4.933594 15.472656 -6.671875 C 15.761719 -7.929688 16.148438 -10.25 16.632812 -13.539062 L 18.664062 -28.429688 L 21.46875 -47.964844 Z M 7.734375 -47.964844 "/></g></g></g><g fill="#2b738a" fill-opacity="1"><g transform="translate(857.703474, 144.263171)"><g><path d="M 5.800781 -34.234375 L 5.320312 -30.75 L 3.382812 -17.117188 L 2.902344 -13.539062 L 0.96875 0 C 5.125 0 7.832031 -0.0976562 9.089844 -0.195312 C 10.832031 -0.484375 12.183594 -0.96875 12.957031 -1.546875 C 13.925781 -2.320312 14.699219 -3.480469 15.085938 -5.125 C 15.472656 -6.480469 16.050781 -9.285156 16.632812 -13.539062 L 17.117188 -17.117188 L 19.050781 -30.75 C 19.242188 -31.816406 19.339844 -32.492188 19.339844 -32.78125 C 19.535156 -33.363281 19.824219 -33.75 20.015625 -33.941406 C 20.308594 -34.136719 20.597656 -34.234375 20.984375 -34.234375 C 21.179688 -34.328125 21.46875 -34.328125 21.757812 -34.328125 C 22.144531 -34.328125 22.628906 -34.328125 23.113281 -34.234375 L 40.808594 -34.234375 L 40.324219 -30.75 L 38.390625 -17.117188 L 37.90625 -13.539062 L 35.972656 0 C 40.710938 0 43.804688 -0.195312 45.160156 -0.386719 C 46.804688 -0.773438 47.964844 -1.355469 48.738281 -2.222656 C 49.511719 -2.996094 49.996094 -4.253906 50.382812 -5.800781 C 50.769531 -7.058594 51.15625 -9.671875 51.640625 -13.539062 L 52.121094 -17.117188 L 54.058594 -30.75 L 54.539062 -34.234375 C 55.121094 -38.488281 55.410156 -41.292969 55.410156 -42.550781 L 55.410156 -43.226562 C 55.3125 -44.871094 54.832031 -46.03125 54.058594 -46.609375 C 53.476562 -47.191406 52.511719 -47.480469 51.253906 -47.675781 C 50.09375 -47.867188 48.253906 -47.867188 45.644531 -47.867188 L 18.46875 -47.867188 C 15.957031 -47.867188 14.117188 -47.867188 12.957031 -47.675781 C 11.410156 -47.480469 10.25 -47.09375 9.476562 -46.515625 C 8.511719 -45.835938 7.734375 -44.582031 7.15625 -42.742188 C 6.867188 -41.484375 6.382812 -38.679688 5.800781 -34.234375 Z M 5.800781 -34.234375 "/></g></g></g><g fill="#2b738a" fill-opacity="1"><g transform="translate(921.613071, 144.263171)"><g><path d="M 4.640625 -34.234375 C 4.640625 -34.136719 4.253906 -30.847656 3.289062 -24.273438 C 3.09375 -23.113281 2.902344 -21.371094 2.515625 -18.953125 C 2.222656 -16.632812 1.933594 -14.796875 1.742188 -13.539062 C 1.355469 -10.445312 1.160156 -8.316406 0.96875 -7.15625 C 0.96875 -6.480469 0.871094 -5.800781 0.871094 -5.222656 C 0.871094 -3.964844 1.0625 -2.996094 1.449219 -2.320312 C 2.03125 -1.257812 3.289062 -0.582031 5.222656 -0.195312 C 6.574219 -0.0976562 8.992188 0 12.667969 0 L 34.910156 0 C 34.714844 1.933594 34.523438 3.191406 34.328125 3.769531 C 34.136719 4.546875 33.941406 5.125 33.554688 5.511719 C 33.265625 5.800781 32.78125 5.996094 32.105469 6.1875 C 31.523438 6.1875 30.363281 6.285156 28.625 6.285156 L 11.894531 6.285156 C 8.992188 6.285156 6.867188 6.285156 5.609375 6.480469 C 3.964844 6.671875 2.707031 6.960938 1.835938 7.542969 C 0.675781 8.21875 -0.289062 9.671875 -0.96875 11.796875 C -1.355469 13.054688 -2.03125 15.761719 -2.902344 19.921875 L 32.105469 19.921875 C 36.746094 19.921875 39.746094 19.726562 41.097656 19.535156 C 42.839844 19.242188 44 18.664062 44.773438 17.792969 C 45.644531 16.828125 46.320312 15.375 46.707031 13.34375 C 46.996094 11.992188 47.382812 9.671875 47.769531 6.285156 L 48.640625 0 L 50.574219 -13.539062 L 51.734375 -22.144531 L 53.476562 -34.234375 C 53.765625 -36.746094 53.960938 -38.488281 53.960938 -39.453125 L 53.960938 -43.324219 C 53.863281 -44.773438 53.476562 -45.742188 52.703125 -46.320312 C 52.316406 -46.804688 51.640625 -47.09375 50.769531 -47.289062 C 50.1875 -47.480469 49.320312 -47.675781 48.253906 -47.675781 C 47.191406 -47.867188 44.96875 -47.867188 41.582031 -47.867188 L 20.308594 -47.867188 C 16.441406 -47.867188 13.828125 -47.867188 12.476562 -47.675781 C 10.347656 -47.480469 8.898438 -46.902344 7.929688 -46.03125 C 7.15625 -45.257812 6.480469 -43.804688 5.898438 -41.777344 C 5.707031 -40.617188 5.222656 -38.101562 4.640625 -34.234375 Z M 21.855469 -34.234375 L 39.746094 -34.234375 L 37.328125 -17.019531 C 37.132812 -15.957031 37.039062 -15.183594 36.84375 -14.796875 C 36.746094 -14.410156 36.652344 -14.214844 36.359375 -14.023438 C 36.167969 -13.828125 35.78125 -13.730469 35.296875 -13.636719 C 34.910156 -13.636719 34.234375 -13.539062 33.167969 -13.539062 L 15.570312 -13.539062 L 16.730469 -22.433594 L 17.890625 -30.65625 C 18.082031 -31.621094 18.179688 -32.203125 18.179688 -32.492188 C 18.375 -33.074219 18.46875 -33.460938 18.664062 -33.652344 C 18.855469 -33.941406 19.242188 -34.136719 19.628906 -34.136719 C 20.015625 -34.234375 20.695312 -34.234375 21.855469 -34.234375 Z M 21.855469 -34.234375 "/></g></g></g><g fill="#2b738a" fill-opacity="1"><g transform="translate(984.169085, 144.263171)"><g/></g></g><g fill="#2b738a" fill-opacity="1"><g transform="translate(1020.814067, 144.263171)"><g><path d="M 44.097656 -47.964844 L 6.671875 -47.964844 L 6.671875 -46.320312 C 6.671875 -43.804688 6.769531 -41.871094 6.769531 -40.710938 C 6.960938 -38.585938 7.347656 -37.132812 7.929688 -36.265625 C 8.605469 -35.394531 9.765625 -34.8125 11.507812 -34.523438 C 12.667969 -34.425781 15.085938 -34.328125 18.566406 -34.328125 L 39.839844 -34.328125 C 39.746094 -33.265625 39.648438 -32.589844 39.550781 -32.203125 C 39.550781 -31.816406 39.453125 -31.523438 39.261719 -31.332031 C 39.066406 -31.136719 38.777344 -30.945312 38.390625 -30.847656 C 38.199219 -30.847656 37.617188 -30.75 36.84375 -30.75 L 16.632812 -30.75 C 13.054688 -30.75 10.539062 -30.65625 9.1875 -30.460938 C 7.542969 -30.269531 6.285156 -29.6875 5.414062 -28.816406 C 4.640625 -28.042969 3.964844 -26.496094 3.480469 -24.175781 C 3.289062 -23.015625 2.902344 -20.695312 2.417969 -17.214844 L 1.835938 -13.636719 C 1.355469 -9.765625 1.0625 -7.15625 0.96875 -5.800781 L 0.96875 -5.222656 C 0.96875 -3.675781 1.160156 -2.609375 1.742188 -1.835938 C 2.320312 -1.160156 3.289062 -0.675781 4.640625 -0.386719 C 5.996094 -0.195312 8.992188 0 13.636719 0 L 34.621094 0 C 39.453125 0 42.550781 -0.195312 43.902344 -0.386719 C 45.257812 -0.675781 46.320312 -1.0625 47.09375 -1.644531 C 47.964844 -2.320312 48.640625 -3.382812 49.027344 -4.738281 C 49.511719 -6.09375 50.09375 -8.992188 50.671875 -13.636719 L 52.027344 -23.5 L 53.574219 -34.328125 C 54.058594 -37.8125 54.347656 -40.132812 54.347656 -41.292969 C 54.445312 -41.871094 54.445312 -42.257812 54.445312 -42.644531 C 54.445312 -44.675781 53.960938 -46.03125 52.992188 -46.707031 C 52.414062 -47.191406 51.445312 -47.480469 50.09375 -47.675781 C 48.933594 -47.867188 46.902344 -47.964844 44.097656 -47.964844 Z M 18.375 -17.214844 L 37.425781 -17.214844 C 37.328125 -16.148438 37.230469 -15.472656 37.132812 -15.085938 C 37.039062 -14.699219 36.941406 -14.3125 36.746094 -14.117188 C 36.652344 -13.925781 36.457031 -13.828125 36.070312 -13.730469 C 35.875 -13.730469 35.296875 -13.636719 34.523438 -13.636719 L 15.570312 -13.636719 C 15.761719 -14.410156 15.859375 -14.988281 15.859375 -15.277344 C 15.957031 -16.050781 16.050781 -16.535156 16.246094 -16.730469 C 16.441406 -16.921875 16.632812 -17.117188 16.921875 -17.117188 C 17.117188 -17.214844 17.601562 -17.214844 18.375 -17.214844 Z M 18.375 -17.214844 "/></g></g></g><g fill="#2b738a" fill-opacity="1"><g transform="translate(38.173616, 249.657566)"><g><path d="M 5.800781 -34.328125 L 0.96875 0 C 6.1875 0 9.476562 -0.195312 10.832031 -0.484375 C 12.183594 -0.871094 13.152344 -1.449219 13.828125 -2.222656 C 14.601562 -3.09375 15.085938 -4.449219 15.472656 -6.1875 C 15.761719 -7.445312 16.148438 -9.863281 16.632812 -13.539062 L 18.953125 -30.269531 C 19.148438 -31.523438 19.339844 -32.300781 19.4375 -32.6875 C 19.628906 -33.265625 19.824219 -33.652344 20.210938 -33.847656 C 20.5 -34.039062 20.886719 -34.234375 21.371094 -34.234375 C 21.855469 -34.328125 22.820312 -34.328125 24.273438 -34.328125 L 40.710938 -34.328125 C 44.773438 -34.328125 47.382812 -34.425781 48.640625 -34.523438 C 50.671875 -34.714844 52.121094 -35.199219 52.992188 -35.972656 C 53.960938 -36.746094 54.636719 -38.101562 55.121094 -39.9375 C 55.507812 -41.292969 55.894531 -43.902344 56.476562 -47.867188 L 19.339844 -47.867188 C 16.050781 -47.867188 13.828125 -47.769531 12.476562 -47.578125 C 10.925781 -47.382812 9.671875 -46.804688 8.898438 -45.933594 C 8.125 -45.160156 7.445312 -43.710938 6.960938 -41.582031 C 6.769531 -40.421875 6.382812 -38.003906 5.800781 -34.328125 Z M 5.800781 -34.328125 "/></g></g></g><g fill="#2b738a" fill-opacity="1"><g transform="translate(101.696466, 249.657566)"><g><path d="M 20.695312 -47.964844 C 16.246094 -47.964844 13.34375 -47.867188 11.992188 -47.675781 C 10.25 -47.480469 8.898438 -46.902344 7.929688 -46.03125 C 7.058594 -45.257812 6.382812 -43.613281 5.898438 -41.292969 C 5.707031 -40.132812 5.320312 -37.90625 4.738281 -34.425781 L 1.835938 -13.730469 C 1.355469 -9.863281 1.0625 -7.347656 0.96875 -5.996094 L 0.96875 -5.320312 C 0.96875 -3.964844 1.160156 -2.996094 1.546875 -2.320312 C 2.128906 -1.449219 3.09375 -0.871094 4.449219 -0.484375 C 5.800781 -0.289062 8.316406 -0.0976562 12.183594 -0.0976562 L 48.738281 -0.0976562 L 48.738281 -1.644531 C 48.738281 -4.546875 48.738281 -6.480469 48.546875 -7.640625 C 48.449219 -9.765625 48.0625 -11.121094 47.289062 -11.894531 C 46.707031 -12.667969 45.644531 -13.152344 44.097656 -13.34375 C 43.03125 -13.539062 40.617188 -13.636719 36.84375 -13.636719 L 15.570312 -13.636719 C 15.761719 -14.699219 15.859375 -15.375 15.859375 -15.664062 C 15.957031 -16.246094 16.050781 -16.632812 16.246094 -16.828125 C 16.441406 -17.019531 16.730469 -17.117188 17.019531 -17.117188 C 17.308594 -17.214844 17.792969 -17.214844 18.46875 -17.214844 L 38.777344 -17.214844 C 42.164062 -17.214844 44.484375 -17.308594 45.742188 -17.503906 C 47.675781 -17.695312 49.027344 -18.277344 49.898438 -19.050781 C 50.671875 -19.921875 51.347656 -21.273438 51.734375 -23.113281 C 52.121094 -24.371094 52.511719 -26.882812 52.992188 -30.75 L 53.574219 -34.425781 C 53.960938 -37.519531 54.25 -39.550781 54.347656 -40.617188 C 54.445312 -41.484375 54.445312 -42.164062 54.445312 -42.742188 C 54.445312 -44.675781 54.058594 -46.03125 53.089844 -46.707031 C 52.316406 -47.289062 50.867188 -47.675781 48.738281 -47.867188 C 47.578125 -47.964844 45.257812 -47.964844 41.777344 -47.964844 Z M 20.886719 -34.328125 L 39.746094 -34.328125 C 39.648438 -33.265625 39.550781 -32.492188 39.453125 -32.105469 C 39.453125 -31.71875 39.359375 -31.523438 39.164062 -31.332031 C 38.972656 -31.136719 38.585938 -30.945312 38.003906 -30.847656 L 17.988281 -30.847656 C 18.179688 -32.007812 18.277344 -32.6875 18.277344 -32.976562 C 18.46875 -33.363281 18.566406 -33.652344 18.664062 -33.847656 C 18.855469 -34.039062 19.050781 -34.234375 19.242188 -34.234375 C 19.4375 -34.328125 20.015625 -34.328125 20.886719 -34.328125 Z M 20.886719 -34.328125 "/></g></g></g><g fill="#2b738a" fill-opacity="1"><g transform="translate(164.639225, 249.657566)"><g><path d="M 3.867188 -47.964844 L 6.285156 -30.460938 L 8.703125 -13.636719 C 9.285156 -9.765625 9.765625 -7.15625 9.960938 -5.800781 C 10.445312 -4.253906 10.925781 -3.09375 11.507812 -2.320312 C 12.28125 -1.449219 13.34375 -0.871094 14.796875 -0.484375 C 16.148438 -0.195312 19.339844 0 24.371094 0 L 33.460938 0 C 37.425781 0 40.035156 -0.195312 41.390625 -0.386719 C 42.9375 -0.675781 44 -1.257812 44.773438 -2.03125 C 45.546875 -2.804688 46.03125 -4.0625 46.417969 -5.707031 C 46.804688 -7.058594 47.191406 -9.671875 47.769531 -13.636719 L 50.671875 -34.234375 C 51.253906 -38.292969 51.542969 -40.90625 51.542969 -42.066406 L 51.542969 -42.742188 C 51.542969 -44.484375 51.253906 -45.742188 50.574219 -46.417969 C 49.898438 -47.191406 48.546875 -47.578125 46.515625 -47.769531 C 45.355469 -47.964844 43.515625 -47.964844 40.808594 -47.964844 L 38.875 -47.964844 L 36.554688 -31.71875 L 34.523438 -17.117188 C 34.425781 -15.957031 34.328125 -15.277344 34.136719 -14.890625 C 34.039062 -14.503906 33.941406 -14.3125 33.75 -14.117188 C 33.554688 -13.925781 33.363281 -13.828125 32.976562 -13.730469 C 32.589844 -13.730469 31.910156 -13.636719 30.75 -13.636719 L 22.433594 -13.636719 L 19.535156 -34.425781 C 19.148438 -37.8125 18.761719 -40.035156 18.46875 -41.195312 C 18.082031 -43.613281 17.308594 -45.257812 16.34375 -46.128906 C 15.570312 -46.996094 14.117188 -47.578125 11.992188 -47.769531 C 10.734375 -47.964844 8.027344 -47.964844 3.867188 -47.964844 Z M 3.867188 -47.964844 "/></g></g></g><g fill="#2b738a" fill-opacity="1"><g transform="translate(224.778186, 249.657566)"><g><path d="M 4.738281 -34.425781 C 3.191406 -22.628906 2.222656 -15.761719 1.835938 -13.730469 C 1.355469 -10.152344 1.0625 -7.734375 0.96875 -6.480469 L 0.96875 -5.320312 C 0.96875 -3.964844 1.257812 -2.902344 1.644531 -2.128906 C 2.222656 -1.355469 3.191406 -0.773438 4.738281 -0.484375 C 6.09375 -0.289062 8.800781 -0.0976562 12.957031 -0.0976562 L 35.683594 -0.0976562 C 40.035156 -0.0976562 42.839844 -0.289062 44.191406 -0.484375 C 46.03125 -0.871094 47.289062 -1.546875 48.0625 -2.707031 C 48.640625 -3.578125 49.125 -4.933594 49.511719 -6.671875 C 49.800781 -7.929688 50.1875 -10.25 50.671875 -13.730469 L 53.574219 -34.425781 C 54.152344 -38.101562 54.445312 -40.617188 54.445312 -41.777344 L 54.445312 -42.742188 C 54.445312 -44.191406 54.25 -45.257812 53.765625 -45.933594 C 53.285156 -46.707031 52.414062 -47.289062 51.253906 -47.480469 C 49.898438 -47.867188 46.902344 -47.964844 42.164062 -47.964844 L 19.921875 -47.964844 C 16.050781 -47.964844 13.441406 -47.964844 12.089844 -47.769531 C 10.152344 -47.578125 8.800781 -46.996094 7.929688 -46.03125 C 6.960938 -45.0625 6.1875 -43.128906 5.609375 -40.132812 C 5.414062 -39.164062 5.125 -37.230469 4.738281 -34.425781 Z M 23.207031 -34.425781 L 39.839844 -34.425781 L 37.425781 -17.214844 C 37.230469 -16.050781 37.132812 -15.375 36.941406 -14.988281 C 36.941406 -14.601562 36.746094 -14.3125 36.554688 -14.117188 C 36.359375 -13.925781 36.070312 -13.828125 35.683594 -13.730469 L 15.570312 -13.730469 L 17.988281 -30.847656 C 18.082031 -31.429688 18.179688 -31.910156 18.179688 -32.105469 C 18.375 -32.976562 18.566406 -33.554688 18.761719 -33.75 C 19.050781 -34.039062 19.535156 -34.234375 20.113281 -34.328125 C 20.597656 -34.425781 21.660156 -34.425781 23.207031 -34.425781 Z M 23.207031 -34.425781 "/></g></g></g><g fill="#2b738a" fill-opacity="1"><g transform="translate(287.720945, 249.657566)"><g><path d="M 24.175781 -67.691406 C 20.308594 -67.691406 17.601562 -67.691406 16.246094 -67.5 C 14.699219 -67.304688 13.441406 -67.015625 12.570312 -66.433594 C 11.410156 -65.757812 10.539062 -64.40625 9.960938 -62.375 C 9.671875 -61.117188 9.1875 -58.410156 8.511719 -54.152344 L 3.964844 -21.179688 L 0.96875 0 C 4.835938 0 7.445312 -0.0976562 8.703125 -0.195312 C 11.023438 -0.484375 12.667969 -1.160156 13.636719 -2.128906 C 14.410156 -2.996094 14.988281 -4.351562 15.375 -6.1875 C 15.761719 -7.542969 16.148438 -9.960938 16.632812 -13.539062 L 20.015625 -38.199219 Z M 24.175781 -67.691406 "/></g></g></g><g fill="#2b738a" fill-opacity="1"><g transform="translate(317.598124, 249.657566)"><g><path d="M 6.671875 -47.964844 L 4.835938 -34.328125 C 4.640625 -32.589844 4.253906 -29.496094 3.480469 -24.660156 C 2.804688 -19.921875 2.320312 -16.246094 1.933594 -13.636719 C 1.449219 -10.539062 1.160156 -8.316406 1.0625 -7.15625 C 1.0625 -6.480469 0.96875 -5.800781 0.96875 -5.222656 C 0.96875 -4.0625 1.160156 -3.09375 1.449219 -2.320312 C 2.03125 -1.355469 3.09375 -0.675781 4.835938 -0.386719 C 6.09375 -0.195312 8.316406 0 11.605469 0 L 37.132812 0 C 40.519531 0 42.839844 -0.195312 44.097656 -0.386719 C 45.933594 -0.773438 47.289062 -1.449219 48.0625 -2.515625 C 48.640625 -3.382812 49.222656 -4.738281 49.609375 -6.574219 C 49.898438 -7.832031 50.285156 -10.152344 50.671875 -13.636719 L 53.574219 -34.328125 C 54.058594 -37.90625 54.347656 -40.230469 54.445312 -41.390625 L 54.445312 -42.644531 C 54.445312 -44 54.25 -45.0625 53.863281 -45.742188 C 53.378906 -46.707031 52.316406 -47.382812 50.574219 -47.578125 C 49.320312 -47.867188 46.417969 -47.964844 41.777344 -47.964844 L 39.839844 -34.328125 L 36.941406 -13.636719 L 19.050781 -13.636719 C 17.792969 -13.636719 17.019531 -13.636719 16.632812 -13.730469 C 16.34375 -13.925781 16.148438 -14.023438 15.957031 -14.214844 C 15.957031 -14.410156 15.859375 -14.796875 15.859375 -15.183594 C 15.957031 -15.570312 16.050781 -16.148438 16.148438 -17.117188 L 18.566406 -34.328125 C 19.050781 -38.003906 19.339844 -40.230469 19.339844 -41.003906 C 19.535156 -41.777344 19.535156 -42.453125 19.535156 -43.03125 C 19.535156 -44.386719 19.339844 -45.355469 18.855469 -45.933594 C 18.277344 -46.902344 17.019531 -47.480469 14.988281 -47.675781 C 13.730469 -47.867188 10.925781 -47.964844 6.671875 -47.964844 Z M 6.671875 -47.964844 "/></g></g></g><g fill="#2b738a" fill-opacity="1"><g transform="translate(380.540895, 249.657566)"><g><path d="M 22.242188 -67.691406 L 19.535156 -47.867188 L 17.503906 -47.867188 C 14.601562 -47.867188 12.570312 -47.867188 11.3125 -47.675781 C 9.378906 -47.480469 8.027344 -46.902344 7.058594 -46.128906 C 6.1875 -45.257812 5.511719 -43.613281 4.933594 -41.195312 C 4.738281 -40.035156 4.351562 -37.714844 3.867188 -34.234375 L 17.601562 -34.234375 L 17.117188 -30.75 L 15.183594 -17.117188 L 14.699219 -13.539062 C 14.117188 -9.960938 13.730469 -7.542969 13.539062 -6.285156 L 13.539062 -4.835938 C 13.539062 -3.675781 13.730469 -2.707031 14.117188 -2.03125 C 14.796875 -1.0625 16.34375 -0.386719 18.855469 -0.0976562 C 20.210938 -0.0976562 22.53125 0 25.917969 0 L 34.714844 0 C 38.488281 0 41.003906 -0.0976562 42.257812 -0.195312 C 44.191406 -0.484375 45.644531 -0.96875 46.515625 -1.742188 C 47.289062 -2.515625 47.964844 -3.867188 48.449219 -5.609375 C 48.835938 -6.960938 49.222656 -9.574219 49.707031 -13.539062 L 28.429688 -13.539062 L 28.914062 -17.117188 L 30.847656 -30.75 L 31.332031 -34.234375 L 38.875 -34.234375 C 42.9375 -34.234375 45.546875 -34.328125 46.804688 -34.425781 C 48.738281 -34.714844 50.1875 -35.199219 51.058594 -35.78125 C 51.929688 -36.554688 52.605469 -37.714844 53.089844 -39.261719 C 53.476562 -40.617188 53.960938 -43.417969 54.539062 -47.867188 L 33.265625 -47.867188 L 34.136719 -54.058594 C 34.714844 -57.441406 35.007812 -59.570312 35.007812 -60.441406 C 35.199219 -61.308594 35.199219 -61.988281 35.199219 -62.566406 C 35.199219 -63.628906 35.101562 -64.5 34.8125 -65.082031 C 34.234375 -66.433594 32.6875 -67.207031 29.976562 -67.402344 C 28.527344 -67.59375 25.917969 -67.691406 22.242188 -67.691406 Z M 22.242188 -67.691406 "/></g></g></g><g fill="#2b738a" fill-opacity="1"><g transform="translate(442.226761, 249.657566)"><g><path d="M 24.175781 -67.691406 C 19.628906 -67.691406 16.632812 -67.59375 15.277344 -67.402344 C 13.730469 -67.207031 12.476562 -66.628906 11.699219 -65.855469 C 10.925781 -65.082031 10.25 -63.628906 9.765625 -61.503906 C 9.476562 -60.34375 9.089844 -57.828125 8.511719 -54.152344 L 8.21875 -51.542969 L 21.953125 -51.542969 Z M 7.734375 -47.964844 L 4.449219 -24.5625 L 0.96875 0 C 5.800781 0 8.898438 -0.195312 10.25 -0.484375 C 12.089844 -0.871094 13.34375 -1.644531 14.117188 -2.804688 C 14.699219 -3.675781 15.183594 -4.933594 15.472656 -6.671875 C 15.761719 -7.929688 16.148438 -10.25 16.632812 -13.539062 L 18.664062 -28.429688 L 21.46875 -47.964844 Z M 7.734375 -47.964844 "/></g></g></g><g fill="#2b738a" fill-opacity="1"><g transform="translate(472.103916, 249.657566)"><g><path d="M 4.738281 -34.425781 C 3.191406 -22.628906 2.222656 -15.761719 1.835938 -13.730469 C 1.355469 -10.152344 1.0625 -7.734375 0.96875 -6.480469 L 0.96875 -5.320312 C 0.96875 -3.964844 1.257812 -2.902344 1.644531 -2.128906 C 2.222656 -1.355469 3.191406 -0.773438 4.738281 -0.484375 C 6.09375 -0.289062 8.800781 -0.0976562 12.957031 -0.0976562 L 35.683594 -0.0976562 C 40.035156 -0.0976562 42.839844 -0.289062 44.191406 -0.484375 C 46.03125 -0.871094 47.289062 -1.546875 48.0625 -2.707031 C 48.640625 -3.578125 49.125 -4.933594 49.511719 -6.671875 C 49.800781 -7.929688 50.1875 -10.25 50.671875 -13.730469 L 53.574219 -34.425781 C 54.152344 -38.101562 54.445312 -40.617188 54.445312 -41.777344 L 54.445312 -42.742188 C 54.445312 -44.191406 54.25 -45.257812 53.765625 -45.933594 C 53.285156 -46.707031 52.414062 -47.289062 51.253906 -47.480469 C 49.898438 -47.867188 46.902344 -47.964844 42.164062 -47.964844 L 19.921875 -47.964844 C 16.050781 -47.964844 13.441406 -47.964844 12.089844 -47.769531 C 10.152344 -47.578125 8.800781 -46.996094 7.929688 -46.03125 C 6.960938 -45.0625 6.1875 -43.128906 5.609375 -40.132812 C 5.414062 -39.164062 5.125 -37.230469 4.738281 -34.425781 Z M 23.207031 -34.425781 L 39.839844 -34.425781 L 37.425781 -17.214844 C 37.230469 -16.050781 37.132812 -15.375 36.941406 -14.988281 C 36.941406 -14.601562 36.746094 -14.3125 36.554688 -14.117188 C 36.359375 -13.925781 36.070312 -13.828125 35.683594 -13.730469 L 15.570312 -13.730469 L 17.988281 -30.847656 C 18.082031 -31.429688 18.179688 -31.910156 18.179688 -32.105469 C 18.375 -32.976562 18.566406 -33.554688 18.761719 -33.75 C 19.050781 -34.039062 19.535156 -34.234375 20.113281 -34.328125 C 20.597656 -34.425781 21.660156 -34.425781 23.207031 -34.425781 Z M 23.207031 -34.425781 "/></g></g></g><g fill="#2b738a" fill-opacity="1"><g transform="translate(535.046688, 249.657566)"><g><path d="M 5.800781 -34.234375 L 5.320312 -30.75 L 3.382812 -17.117188 L 2.902344 -13.539062 L 0.96875 0 C 5.125 0 7.832031 -0.0976562 9.089844 -0.195312 C 10.832031 -0.484375 12.183594 -0.96875 12.957031 -1.546875 C 13.925781 -2.320312 14.699219 -3.480469 15.085938 -5.125 C 15.472656 -6.480469 16.050781 -9.285156 16.632812 -13.539062 L 17.117188 -17.117188 L 19.050781 -30.75 C 19.242188 -31.816406 19.339844 -32.492188 19.339844 -32.78125 C 19.535156 -33.363281 19.824219 -33.75 20.015625 -33.941406 C 20.308594 -34.136719 20.597656 -34.234375 20.984375 -34.234375 C 21.179688 -34.328125 21.46875 -34.328125 21.757812 -34.328125 C 22.144531 -34.328125 22.628906 -34.328125 23.113281 -34.234375 L 40.808594 -34.234375 L 40.324219 -30.75 L 38.390625 -17.117188 L 37.90625 -13.539062 L 35.972656 0 C 40.710938 0 43.804688 -0.195312 45.160156 -0.386719 C 46.804688 -0.773438 47.964844 -1.355469 48.738281 -2.222656 C 49.511719 -2.996094 49.996094 -4.253906 50.382812 -5.800781 C 50.769531 -7.058594 51.15625 -9.671875 51.640625 -13.539062 L 52.121094 -17.117188 L 54.058594 -30.75 L 54.539062 -34.234375 C 55.121094 -38.488281 55.410156 -41.292969 55.410156 -42.550781 L 55.410156 -43.226562 C 55.3125 -44.871094 54.832031 -46.03125 54.058594 -46.609375 C 53.476562 -47.191406 52.511719 -47.480469 51.253906 -47.675781 C 50.09375 -47.867188 48.253906 -47.867188 45.644531 -47.867188 L 18.46875 -47.867188 C 15.957031 -47.867188 14.117188 -47.867188 12.957031 -47.675781 C 11.410156 -47.480469 10.25 -47.09375 9.476562 -46.515625 C 8.511719 -45.835938 7.734375 -44.582031 7.15625 -42.742188 C 6.867188 -41.484375 6.382812 -38.679688 5.800781 -34.234375 Z M 5.800781 -34.234375 "/></g></g></g><g fill="#2b738a" fill-opacity="1"><g transform="translate(598.956285, 249.657566)"><g/></g></g><g fill="#2b738a" fill-opacity="1"><g transform="translate(635.601267, 249.657566)"><g><path d="M 24.175781 -67.691406 C 19.628906 -67.691406 16.632812 -67.59375 15.277344 -67.402344 C 13.730469 -67.207031 12.476562 -66.628906 11.699219 -65.855469 C 10.925781 -65.082031 10.25 -63.628906 9.765625 -61.503906 C 9.476562 -60.34375 9.089844 -57.828125 8.511719 -54.152344 L 8.21875 -51.542969 L 21.953125 -51.542969 Z M 7.734375 -47.964844 L 4.449219 -24.5625 L 0.96875 0 C 5.800781 0 8.898438 -0.195312 10.25 -0.484375 C 12.089844 -0.871094 13.34375 -1.644531 14.117188 -2.804688 C 14.699219 -3.675781 15.183594 -4.933594 15.472656 -6.671875 C 15.761719 -7.929688 16.148438 -10.25 16.632812 -13.539062 L 18.664062 -28.429688 L 21.46875 -47.964844 Z M 7.734375 -47.964844 "/></g></g></g><g fill="#2b738a" fill-opacity="1"><g transform="translate(665.478423, 249.657566)"><g><path d="M 5.800781 -34.234375 L 5.320312 -30.75 L 3.382812 -17.117188 L 2.902344 -13.539062 L 0.96875 0 C 5.125 0 7.832031 -0.0976562 9.089844 -0.195312 C 10.832031 -0.484375 12.183594 -0.96875 12.957031 -1.546875 C 13.925781 -2.320312 14.699219 -3.480469 15.085938 -5.125 C 15.472656 -6.480469 16.050781 -9.285156 16.632812 -13.539062 L 17.117188 -17.117188 L 19.050781 -30.75 C 19.242188 -31.816406 19.339844 -32.492188 19.339844 -32.78125 C 19.535156 -33.363281 19.824219 -33.75 20.015625 -33.941406 C 20.308594 -34.136719 20.597656 -34.234375 20.984375 -34.234375 C 21.179688 -34.328125 21.46875 -34.328125 21.757812 -34.328125 C 22.144531 -34.328125 22.628906 -34.328125 23.113281 -34.234375 L 40.808594 -34.234375 L 40.324219 -30.75 L 38.390625 -17.117188 L 37.90625 -13.539062 L 35.972656 0 C 40.710938 0 43.804688 -0.195312 45.160156 -0.386719 C 46.804688 -0.773438 47.964844 -1.355469 48.738281 -2.222656 C 49.511719 -2.996094 49.996094 -4.253906 50.382812 -5.800781 C 50.769531 -7.058594 51.15625 -9.671875 51.640625 -13.539062 L 52.121094 -17.117188 L 54.058594 -30.75 L 54.539062 -34.234375 C 55.121094 -38.488281 55.410156 -41.292969 55.410156 -42.550781 L 55.410156 -43.226562 C 55.3125 -44.871094 54.832031 -46.03125 54.058594 -46.609375 C 53.476562 -47.191406 52.511719 -47.480469 51.253906 -47.675781 C 50.09375 -47.867188 48.253906 -47.867188 45.644531 -47.867188 L 18.46875 -47.867188 C 15.957031 -47.867188 14.117188 -47.867188 12.957031 -47.675781 C 11.410156 -47.480469 10.25 -47.09375 9.476562 -46.515625 C 8.511719 -45.835938 7.734375 -44.582031 7.15625 -42.742188 C 6.867188 -41.484375 6.382812 -38.679688 5.800781 -34.234375 Z M 5.800781 -34.234375 "/></g></g></g><g fill="#2b738a" fill-opacity="1"><g transform="translate(729.388019, 249.657566)"><g/></g></g><g fill="#2b738a" fill-opacity="1"><g transform="translate(766.033001, 249.657566)"><g><path d="M 10.445312 -67.789062 L 7.058594 -43.226562 L 2.902344 -13.636719 L 0.96875 -0.0976562 L 1.835938 -0.0976562 C 5.511719 -0.0976562 7.929688 -0.195312 9.1875 -0.289062 C 10.832031 -0.484375 12.089844 -0.871094 12.863281 -1.449219 C 13.925781 -2.222656 14.699219 -3.578125 15.183594 -5.511719 C 15.570312 -6.867188 16.050781 -9.574219 16.632812 -13.636719 L 19.535156 -34.328125 L 40.808594 -34.328125 L 37.90625 -13.636719 L 35.972656 -0.0976562 L 36.941406 -0.0976562 C 40.90625 -0.0976562 43.613281 -0.195312 44.96875 -0.386719 C 46.902344 -0.773438 48.253906 -1.449219 49.027344 -2.417969 C 49.707031 -3.289062 50.1875 -4.546875 50.574219 -6.285156 C 50.867188 -7.542969 51.253906 -9.960938 51.640625 -13.636719 L 54.539062 -34.328125 C 55.121094 -38.585938 55.410156 -41.390625 55.410156 -42.644531 C 55.410156 -44.386719 55.21875 -45.546875 54.539062 -46.222656 C 53.960938 -46.996094 52.898438 -47.480469 51.347656 -47.675781 C 50.09375 -47.867188 47.769531 -47.964844 44.386719 -47.964844 L 21.46875 -47.964844 L 22.339844 -54.152344 C 23.015625 -57.925781 23.402344 -60.441406 23.402344 -61.695312 C 23.5 -62.082031 23.5 -62.46875 23.5 -62.855469 C 23.5 -64.113281 23.304688 -65.082031 22.820312 -65.660156 C 22.242188 -66.628906 21.082031 -67.207031 19.242188 -67.5 C 17.890625 -67.691406 14.988281 -67.789062 10.445312 -67.789062 Z M 10.445312 -67.789062 "/></g></g></g><g fill="#2b738a" fill-opacity="1"><g transform="translate(830.039323, 249.657566)"><g><path d="M 6.671875 -47.964844 L 4.835938 -34.328125 C 4.640625 -32.589844 4.253906 -29.496094 3.480469 -24.660156 C 2.804688 -19.921875 2.320312 -16.246094 1.933594 -13.636719 C 1.449219 -10.539062 1.160156 -8.316406 1.0625 -7.15625 C 1.0625 -6.480469 0.96875 -5.800781 0.96875 -5.222656 C 0.96875 -4.0625 1.160156 -3.09375 1.449219 -2.320312 C 2.03125 -1.355469 3.09375 -0.675781 4.835938 -0.386719 C 6.09375 -0.195312 8.316406 0 11.605469 0 L 37.132812 0 C 40.519531 0 42.839844 -0.195312 44.097656 -0.386719 C 45.933594 -0.773438 47.289062 -1.449219 48.0625 -2.515625 C 48.640625 -3.382812 49.222656 -4.738281 49.609375 -6.574219 C 49.898438 -7.832031 50.285156 -10.152344 50.671875 -13.636719 L 53.574219 -34.328125 C 54.058594 -37.90625 54.347656 -40.230469 54.445312 -41.390625 L 54.445312 -42.644531 C 54.445312 -44 54.25 -45.0625 53.863281 -45.742188 C 53.378906 -46.707031 52.316406 -47.382812 50.574219 -47.578125 C 49.320312 -47.867188 46.417969 -47.964844 41.777344 -47.964844 L 39.839844 -34.328125 L 36.941406 -13.636719 L 19.050781 -13.636719 C 17.792969 -13.636719 17.019531 -13.636719 16.632812 -13.730469 C 16.34375 -13.925781 16.148438 -14.023438 15.957031 -14.214844 C 15.957031 -14.410156 15.859375 -14.796875 15.859375 -15.183594 C 15.957031 -15.570312 16.050781 -16.148438 16.148438 -17.117188 L 18.566406 -34.328125 C 19.050781 -38.003906 19.339844 -40.230469 19.339844 -41.003906 C 19.535156 -41.777344 19.535156 -42.453125 19.535156 -43.03125 C 19.535156 -44.386719 19.339844 -45.355469 18.855469 -45.933594 C 18.277344 -46.902344 17.019531 -47.480469 14.988281 -47.675781 C 13.730469 -47.867188 10.925781 -47.964844 6.671875 -47.964844 Z M 6.671875 -47.964844 "/></g></g></g><g fill="#2b738a" fill-opacity="1"><g transform="translate(892.982049, 249.657566)"><g><path d="M 5.800781 -34.425781 L 5.320312 -30.847656 L 3.382812 -17.214844 L 2.902344 -13.636719 L 0.96875 -0.0976562 C 5.027344 -0.0976562 7.734375 -0.195312 8.992188 -0.289062 C 10.734375 -0.484375 12.089844 -0.96875 12.863281 -1.546875 C 13.925781 -2.320312 14.699219 -3.578125 15.183594 -5.511719 C 15.570312 -6.867188 16.050781 -9.574219 16.632812 -13.636719 L 17.117188 -17.214844 L 19.050781 -30.847656 C 19.242188 -32.007812 19.339844 -32.6875 19.339844 -32.976562 C 19.535156 -33.554688 19.824219 -33.847656 20.015625 -34.039062 C 20.210938 -34.234375 20.597656 -34.328125 20.984375 -34.328125 C 21.371094 -34.425781 22.046875 -34.425781 23.113281 -34.425781 L 22.628906 -30.847656 L 20.695312 -17.214844 L 20.210938 -13.636719 L 18.277344 -0.0976562 C 23.113281 -0.0976562 26.109375 -0.289062 27.464844 -0.484375 C 29.011719 -0.871094 30.171875 -1.449219 30.945312 -2.222656 C 31.71875 -2.996094 32.300781 -4.253906 32.6875 -5.996094 C 33.074219 -7.347656 33.460938 -9.863281 33.941406 -13.636719 L 34.425781 -17.214844 L 36.359375 -30.847656 C 36.554688 -31.816406 36.652344 -32.394531 36.652344 -32.6875 C 36.84375 -33.265625 36.941406 -33.652344 37.132812 -33.847656 C 37.425781 -34.136719 37.714844 -34.328125 38.101562 -34.328125 C 38.585938 -34.425781 39.453125 -34.425781 40.808594 -34.425781 L 40.324219 -30.847656 L 38.390625 -17.214844 L 37.90625 -13.636719 L 35.972656 -0.0976562 C 40.324219 -0.0976562 43.128906 -0.195312 44.484375 -0.386719 C 46.609375 -0.675781 48.0625 -1.355469 48.835938 -2.417969 C 49.609375 -3.382812 50.1875 -4.835938 50.574219 -6.960938 C 50.867188 -8.125 51.253906 -10.347656 51.640625 -13.636719 L 52.121094 -17.214844 L 54.058594 -30.847656 L 54.539062 -34.425781 C 55.023438 -37.90625 55.3125 -40.230469 55.3125 -41.390625 C 55.410156 -41.871094 55.410156 -42.257812 55.410156 -42.644531 C 55.410156 -44.191406 55.21875 -45.257812 54.734375 -45.933594 C 54.152344 -46.902344 52.898438 -47.578125 50.960938 -47.769531 C 49.898438 -47.964844 48.15625 -47.964844 45.644531 -47.964844 L 18.46875 -47.964844 C 16.246094 -47.964844 14.601562 -47.964844 13.441406 -47.867188 C 11.699219 -47.675781 10.347656 -47.289062 9.378906 -46.609375 C 8.414062 -45.933594 7.734375 -44.675781 7.15625 -42.839844 C 6.769531 -41.484375 6.382812 -38.679688 5.800781 -34.425781 Z M 5.800781 -34.425781 "/></g></g></g><g fill="#2b738a" fill-opacity="1"><g transform="translate(956.891646, 249.657566)"><g><path d="M 44.097656 -47.964844 L 6.671875 -47.964844 L 6.671875 -46.320312 C 6.671875 -43.804688 6.769531 -41.871094 6.769531 -40.710938 C 6.960938 -38.585938 7.347656 -37.132812 7.929688 -36.265625 C 8.605469 -35.394531 9.765625 -34.8125 11.507812 -34.523438 C 12.667969 -34.425781 15.085938 -34.328125 18.566406 -34.328125 L 39.839844 -34.328125 C 39.746094 -33.265625 39.648438 -32.589844 39.550781 -32.203125 C 39.550781 -31.816406 39.453125 -31.523438 39.261719 -31.332031 C 39.066406 -31.136719 38.777344 -30.945312 38.390625 -30.847656 C 38.199219 -30.847656 37.617188 -30.75 36.84375 -30.75 L 16.632812 -30.75 C 13.054688 -30.75 10.539062 -30.65625 9.1875 -30.460938 C 7.542969 -30.269531 6.285156 -29.6875 5.414062 -28.816406 C 4.640625 -28.042969 3.964844 -26.496094 3.480469 -24.175781 C 3.289062 -23.015625 2.902344 -20.695312 2.417969 -17.214844 L 1.835938 -13.636719 C 1.355469 -9.765625 1.0625 -7.15625 0.96875 -5.800781 L 0.96875 -5.222656 C 0.96875 -3.675781 1.160156 -2.609375 1.742188 -1.835938 C 2.320312 -1.160156 3.289062 -0.675781 4.640625 -0.386719 C 5.996094 -0.195312 8.992188 0 13.636719 0 L 34.621094 0 C 39.453125 0 42.550781 -0.195312 43.902344 -0.386719 C 45.257812 -0.675781 46.320312 -1.0625 47.09375 -1.644531 C 47.964844 -2.320312 48.640625 -3.382812 49.027344 -4.738281 C 49.511719 -6.09375 50.09375 -8.992188 50.671875 -13.636719 L 52.027344 -23.5 L 53.574219 -34.328125 C 54.058594 -37.8125 54.347656 -40.132812 54.347656 -41.292969 C 54.445312 -41.871094 54.445312 -42.257812 54.445312 -42.644531 C 54.445312 -44.675781 53.960938 -46.03125 52.992188 -46.707031 C 52.414062 -47.191406 51.445312 -47.480469 50.09375 -47.675781 C 48.933594 -47.867188 46.902344 -47.964844 44.097656 -47.964844 Z M 18.375 -17.214844 L 37.425781 -17.214844 C 37.328125 -16.148438 37.230469 -15.472656 37.132812 -15.085938 C 37.039062 -14.699219 36.941406 -14.3125 36.746094 -14.117188 C 36.652344 -13.925781 36.457031 -13.828125 36.070312 -13.730469 C 35.875 -13.730469 35.296875 -13.636719 34.523438 -13.636719 L 15.570312 -13.636719 C 15.761719 -14.410156 15.859375 -14.988281 15.859375 -15.277344 C 15.957031 -16.050781 16.050781 -16.535156 16.246094 -16.730469 C 16.441406 -16.921875 16.632812 -17.117188 16.921875 -17.117188 C 17.117188 -17.214844 17.601562 -17.214844 18.375 -17.214844 Z M 18.375 -17.214844 "/></g></g></g><g fill="#2b738a" fill-opacity="1"><g transform="translate(1019.834371, 249.657566)"><g><path d="M 5.800781 -34.234375 L 5.320312 -30.75 L 3.382812 -17.117188 L 2.902344 -13.539062 L 0.96875 0 C 5.125 0 7.832031 -0.0976562 9.089844 -0.195312 C 10.832031 -0.484375 12.183594 -0.96875 12.957031 -1.546875 C 13.925781 -2.320312 14.699219 -3.480469 15.085938 -5.125 C 15.472656 -6.480469 16.050781 -9.285156 16.632812 -13.539062 L 17.117188 -17.117188 L 19.050781 -30.75 C 19.242188 -31.816406 19.339844 -32.492188 19.339844 -32.78125 C 19.535156 -33.363281 19.824219 -33.75 20.015625 -33.941406 C 20.308594 -34.136719 20.597656 -34.234375 20.984375 -34.234375 C 21.179688 -34.328125 21.46875 -34.328125 21.757812 -34.328125 C 22.144531 -34.328125 22.628906 -34.328125 23.113281 -34.234375 L 40.808594 -34.234375 L 40.324219 -30.75 L 38.390625 -17.117188 L 37.90625 -13.539062 L 35.972656 0 C 40.710938 0 43.804688 -0.195312 45.160156 -0.386719 C 46.804688 -0.773438 47.964844 -1.355469 48.738281 -2.222656 C 49.511719 -2.996094 49.996094 -4.253906 50.382812 -5.800781 C 50.769531 -7.058594 51.15625 -9.671875 51.640625 -13.539062 L 52.121094 -17.117188 L 54.058594 -30.75 L 54.539062 -34.234375 C 55.121094 -38.488281 55.410156 -41.292969 55.410156 -42.550781 L 55.410156 -43.226562 C 55.3125 -44.871094 54.832031 -46.03125 54.058594 -46.609375 C 53.476562 -47.191406 52.511719 -47.480469 51.253906 -47.675781 C 50.09375 -47.867188 48.253906 -47.867188 45.644531 -47.867188 L 18.46875 -47.867188 C 15.957031 -47.867188 14.117188 -47.867188 12.957031 -47.675781 C 11.410156 -47.480469 10.25 -47.09375 9.476562 -46.515625 C 8.511719 -45.835938 7.734375 -44.582031 7.15625 -42.742188 C 6.867188 -41.484375 6.382812 -38.679688 5.800781 -34.234375 Z M 5.800781 -34.234375 "/></g></g></g><g fill="#2b738a" fill-opacity="1"><g transform="translate(304.929311, 355.051961)"><g><path d="M 24.175781 -67.691406 C 19.628906 -67.691406 16.632812 -67.59375 15.277344 -67.402344 C 13.730469 -67.207031 12.476562 -66.628906 11.699219 -65.855469 C 10.925781 -65.082031 10.25 -63.628906 9.765625 -61.503906 C 9.476562 -60.34375 9.089844 -57.828125 8.511719 -54.152344 L 8.21875 -51.542969 L 21.953125 -51.542969 Z M 7.734375 -47.964844 L 4.449219 -24.5625 L 0.96875 0 C 5.800781 0 8.898438 -0.195312 10.25 -0.484375 C 12.089844 -0.871094 13.34375 -1.644531 14.117188 -2.804688 C 14.699219 -3.675781 15.183594 -4.933594 15.472656 -6.671875 C 15.761719 -7.929688 16.148438 -10.25 16.632812 -13.539062 L 18.664062 -28.429688 L 21.46875 -47.964844 Z M 7.734375 -47.964844 "/></g></g></g><g fill="#2b738a" fill-opacity="1"><g transform="translate(334.806479, 355.051961)"><g><path d="M 42.550781 -54.058594 L 41.679688 -47.964844 L 19.148438 -47.964844 C 15.472656 -47.964844 12.863281 -47.867188 11.507812 -47.578125 C 9.960938 -47.382812 8.703125 -46.804688 7.929688 -46.03125 C 7.15625 -45.257812 6.574219 -44 6.09375 -42.257812 C 5.800781 -41.003906 5.414062 -38.390625 4.835938 -34.328125 C 4.449219 -32.007812 3.964844 -28.625 3.289062 -23.980469 C 2.707031 -19.339844 2.222656 -15.957031 1.933594 -13.636719 C 1.546875 -10.539062 1.257812 -8.511719 1.0625 -7.347656 C 1.0625 -6.574219 0.96875 -5.800781 0.96875 -5.222656 C 0.96875 -3.675781 1.355469 -2.515625 1.933594 -1.742188 C 2.515625 -1.160156 3.480469 -0.675781 4.835938 -0.386719 C 6.1875 -0.195312 9.089844 0 13.539062 0 L 35.199219 0 C 39.550781 0 42.453125 -0.0976562 43.804688 -0.289062 C 45.257812 -0.582031 46.320312 -0.96875 47.09375 -1.449219 C 48.15625 -2.222656 48.933594 -3.675781 49.414062 -5.609375 C 49.800781 -6.867188 50.1875 -9.574219 50.671875 -13.636719 L 51.15625 -17.214844 L 58.214844 -67.691406 C 54.058594 -67.691406 51.347656 -67.691406 49.996094 -67.5 C 48.15625 -67.304688 46.804688 -66.726562 45.933594 -65.953125 C 45.160156 -65.273438 44.484375 -64.015625 44 -62.277344 C 43.613281 -60.921875 43.128906 -58.214844 42.550781 -54.058594 Z M 21.855469 -34.328125 L 39.746094 -34.328125 L 37.425781 -17.214844 C 37.230469 -16.246094 37.132812 -15.664062 36.941406 -15.277344 C 36.84375 -14.699219 36.652344 -14.3125 36.359375 -14.117188 C 36.167969 -13.925781 35.875 -13.828125 35.488281 -13.730469 C 35.101562 -13.730469 34.328125 -13.636719 32.976562 -13.636719 L 15.664062 -13.636719 L 18.082031 -30.75 C 18.277344 -31.71875 18.375 -32.394531 18.375 -32.6875 C 18.566406 -33.265625 18.664062 -33.554688 18.855469 -33.75 C 19.050781 -34.039062 19.4375 -34.234375 19.824219 -34.234375 C 20.210938 -34.328125 20.886719 -34.328125 21.855469 -34.328125 Z M 21.855469 -34.328125 "/></g></g></g><g fill="#2b738a" fill-opacity="1"><g transform="translate(398.619387, 355.051961)"><g><path d="M 20.695312 -47.964844 C 16.246094 -47.964844 13.34375 -47.867188 11.992188 -47.675781 C 10.25 -47.480469 8.898438 -46.902344 7.929688 -46.03125 C 7.058594 -45.257812 6.382812 -43.613281 5.898438 -41.292969 C 5.707031 -40.132812 5.320312 -37.90625 4.738281 -34.425781 L 1.835938 -13.730469 C 1.355469 -9.863281 1.0625 -7.347656 0.96875 -5.996094 L 0.96875 -5.320312 C 0.96875 -3.964844 1.160156 -2.996094 1.546875 -2.320312 C 2.128906 -1.449219 3.09375 -0.871094 4.449219 -0.484375 C 5.800781 -0.289062 8.316406 -0.0976562 12.183594 -0.0976562 L 48.738281 -0.0976562 L 48.738281 -1.644531 C 48.738281 -4.546875 48.738281 -6.480469 48.546875 -7.640625 C 48.449219 -9.765625 48.0625 -11.121094 47.289062 -11.894531 C 46.707031 -12.667969 45.644531 -13.152344 44.097656 -13.34375 C 43.03125 -13.539062 40.617188 -13.636719 36.84375 -13.636719 L 15.570312 -13.636719 C 15.761719 -14.699219 15.859375 -15.375 15.859375 -15.664062 C 15.957031 -16.246094 16.050781 -16.632812 16.246094 -16.828125 C 16.441406 -17.019531 16.730469 -17.117188 17.019531 -17.117188 C 17.308594 -17.214844 17.792969 -17.214844 18.46875 -17.214844 L 38.777344 -17.214844 C 42.164062 -17.214844 44.484375 -17.308594 45.742188 -17.503906 C 47.675781 -17.695312 49.027344 -18.277344 49.898438 -19.050781 C 50.671875 -19.921875 51.347656 -21.273438 51.734375 -23.113281 C 52.121094 -24.371094 52.511719 -26.882812 52.992188 -30.75 L 53.574219 -34.425781 C 53.960938 -37.519531 54.25 -39.550781 54.347656 -40.617188 C 54.445312 -41.484375 54.445312 -42.164062 54.445312 -42.742188 C 54.445312 -44.675781 54.058594 -46.03125 53.089844 -46.707031 C 52.316406 -47.289062 50.867188 -47.675781 48.738281 -47.867188 C 47.578125 -47.964844 45.257812 -47.964844 41.777344 -47.964844 Z M 20.886719 -34.328125 L 39.746094 -34.328125 C 39.648438 -33.265625 39.550781 -32.492188 39.453125 -32.105469 C 39.453125 -31.71875 39.359375 -31.523438 39.164062 -31.332031 C 38.972656 -31.136719 38.585938 -30.945312 38.003906 -30.847656 L 17.988281 -30.847656 C 18.179688 -32.007812 18.277344 -32.6875 18.277344 -32.976562 C 18.46875 -33.363281 18.566406 -33.652344 18.664062 -33.847656 C 18.855469 -34.039062 19.050781 -34.234375 19.242188 -34.234375 C 19.4375 -34.328125 20.015625 -34.328125 20.886719 -34.328125 Z M 20.886719 -34.328125 "/></g></g></g><g fill="#2b738a" fill-opacity="1"><g transform="translate(461.562146, 355.051961)"><g><path d="M 5.800781 -34.234375 L 5.320312 -30.75 L 3.382812 -17.117188 L 2.902344 -13.539062 L 0.96875 0 C 5.125 0 7.832031 -0.0976562 9.089844 -0.195312 C 10.832031 -0.484375 12.183594 -0.96875 12.957031 -1.546875 C 13.925781 -2.320312 14.699219 -3.480469 15.085938 -5.125 C 15.472656 -6.480469 16.050781 -9.285156 16.632812 -13.539062 L 17.117188 -17.117188 L 19.050781 -30.75 C 19.242188 -31.816406 19.339844 -32.492188 19.339844 -32.78125 C 19.535156 -33.363281 19.824219 -33.75 20.015625 -33.941406 C 20.308594 -34.136719 20.597656 -34.234375 20.984375 -34.234375 C 21.179688 -34.328125 21.46875 -34.328125 21.757812 -34.328125 C 22.144531 -34.328125 22.628906 -34.328125 23.113281 -34.234375 L 40.808594 -34.234375 L 40.324219 -30.75 L 38.390625 -17.117188 L 37.90625 -13.539062 L 35.972656 0 C 40.710938 0 43.804688 -0.195312 45.160156 -0.386719 C 46.804688 -0.773438 47.964844 -1.355469 48.738281 -2.222656 C 49.511719 -2.996094 49.996094 -4.253906 50.382812 -5.800781 C 50.769531 -7.058594 51.15625 -9.671875 51.640625 -13.539062 L 52.121094 -17.117188 L 54.058594 -30.75 L 54.539062 -34.234375 C 55.121094 -38.488281 55.410156 -41.292969 55.410156 -42.550781 L 55.410156 -43.226562 C 55.3125 -44.871094 54.832031 -46.03125 54.058594 -46.609375 C 53.476562 -47.191406 52.511719 -47.480469 51.253906 -47.675781 C 50.09375 -47.867188 48.253906 -47.867188 45.644531 -47.867188 L 18.46875 -47.867188 C 15.957031 -47.867188 14.117188 -47.867188 12.957031 -47.675781 C 11.410156 -47.480469 10.25 -47.09375 9.476562 -46.515625 C 8.511719 -45.835938 7.734375 -44.582031 7.15625 -42.742188 C 6.867188 -41.484375 6.382812 -38.679688 5.800781 -34.234375 Z M 5.800781 -34.234375 "/></g></g></g><g fill="#2b738a" fill-opacity="1"><g transform="translate(525.471732, 355.051961)"><g><path d="M 22.242188 -67.691406 L 19.535156 -47.867188 L 17.503906 -47.867188 C 14.601562 -47.867188 12.570312 -47.867188 11.3125 -47.675781 C 9.378906 -47.480469 8.027344 -46.902344 7.058594 -46.128906 C 6.1875 -45.257812 5.511719 -43.613281 4.933594 -41.195312 C 4.738281 -40.035156 4.351562 -37.714844 3.867188 -34.234375 L 17.601562 -34.234375 L 17.117188 -30.75 L 15.183594 -17.117188 L 14.699219 -13.539062 C 14.117188 -9.960938 13.730469 -7.542969 13.539062 -6.285156 L 13.539062 -4.835938 C 13.539062 -3.675781 13.730469 -2.707031 14.117188 -2.03125 C 14.796875 -1.0625 16.34375 -0.386719 18.855469 -0.0976562 C 20.210938 -0.0976562 22.53125 0 25.917969 0 L 34.714844 0 C 38.488281 0 41.003906 -0.0976562 42.257812 -0.195312 C 44.191406 -0.484375 45.644531 -0.96875 46.515625 -1.742188 C 47.289062 -2.515625 47.964844 -3.867188 48.449219 -5.609375 C 48.835938 -6.960938 49.222656 -9.574219 49.707031 -13.539062 L 28.429688 -13.539062 L 28.914062 -17.117188 L 30.847656 -30.75 L 31.332031 -34.234375 L 38.875 -34.234375 C 42.9375 -34.234375 45.546875 -34.328125 46.804688 -34.425781 C 48.738281 -34.714844 50.1875 -35.199219 51.058594 -35.78125 C 51.929688 -36.554688 52.605469 -37.714844 53.089844 -39.261719 C 53.476562 -40.617188 53.960938 -43.417969 54.539062 -47.867188 L 33.265625 -47.867188 L 34.136719 -54.058594 C 34.714844 -57.441406 35.007812 -59.570312 35.007812 -60.441406 C 35.199219 -61.308594 35.199219 -61.988281 35.199219 -62.566406 C 35.199219 -63.628906 35.101562 -64.5 34.8125 -65.082031 C 34.234375 -66.433594 32.6875 -67.207031 29.976562 -67.402344 C 28.527344 -67.59375 25.917969 -67.691406 22.242188 -67.691406 Z M 22.242188 -67.691406 "/></g></g></g><g fill="#2b738a" fill-opacity="1"><g transform="translate(587.157621, 355.051961)"><g><path d="M 24.175781 -67.691406 C 19.628906 -67.691406 16.632812 -67.59375 15.277344 -67.402344 C 13.730469 -67.207031 12.476562 -66.628906 11.699219 -65.855469 C 10.925781 -65.082031 10.25 -63.628906 9.765625 -61.503906 C 9.476562 -60.34375 9.089844 -57.828125 8.511719 -54.152344 L 8.21875 -51.542969 L 21.953125 -51.542969 Z M 7.734375 -47.964844 L 4.449219 -24.5625 L 0.96875 0 C 5.800781 0 8.898438 -0.195312 10.25 -0.484375 C 12.089844 -0.871094 13.34375 -1.644531 14.117188 -2.804688 C 14.699219 -3.675781 15.183594 -4.933594 15.472656 -6.671875 C 15.761719 -7.929688 16.148438 -10.25 16.632812 -13.539062 L 18.664062 -28.429688 L 21.46875 -47.964844 Z M 7.734375 -47.964844 "/></g></g></g><g fill="#2b738a" fill-opacity="1"><g transform="translate(617.034776, 355.051961)"><g><path d="M 19.535156 -47.964844 C 16.441406 -47.964844 14.214844 -47.964844 12.863281 -47.769531 C 11.121094 -47.675781 9.863281 -47.289062 8.992188 -46.609375 C 7.929688 -45.933594 7.058594 -44.582031 6.480469 -42.550781 C 6.1875 -41.195312 5.800781 -38.488281 5.222656 -34.425781 L 1.257812 -6.671875 L -2.417969 19.726562 C 2.515625 19.726562 5.707031 19.535156 7.058594 19.242188 C 8.800781 18.855469 9.960938 18.179688 10.734375 17.019531 C 11.3125 16.148438 11.699219 14.988281 12.089844 13.441406 C 12.378906 12.089844 12.765625 9.671875 13.25 5.996094 L 14.117188 -0.0976562 L 35.585938 -0.0976562 C 39.9375 -0.0976562 42.742188 -0.195312 44.097656 -0.386719 C 45.835938 -0.675781 47.191406 -1.160156 47.964844 -1.933594 C 48.835938 -2.804688 49.511719 -4.253906 49.898438 -6.1875 C 50.1875 -7.445312 50.574219 -9.960938 51.058594 -13.730469 L 16.050781 -13.730469 L 18.46875 -30.847656 C 18.664062 -32.007812 18.761719 -32.6875 18.855469 -33.074219 C 19.050781 -33.652344 19.242188 -33.941406 19.628906 -34.136719 C 19.921875 -34.328125 20.308594 -34.328125 20.695312 -34.328125 C 21.082031 -34.425781 21.855469 -34.425781 22.917969 -34.425781 L 40.230469 -34.425781 C 44.871094 -34.425781 47.867188 -34.523438 49.222656 -34.714844 C 50.960938 -35.101562 52.121094 -35.683594 52.898438 -36.554688 C 53.476562 -37.230469 53.960938 -38.199219 54.347656 -39.453125 C 54.734375 -40.808594 55.3125 -43.613281 55.894531 -47.964844 Z M 19.535156 -47.964844 "/></g></g></g><g fill="#2b738a" fill-opacity="1"><g transform="translate(679.977548, 355.051961)"><g><path d="M 24.175781 -67.691406 C 19.628906 -67.691406 16.632812 -67.59375 15.277344 -67.402344 C 13.730469 -67.207031 12.476562 -66.628906 11.699219 -65.855469 C 10.925781 -65.082031 10.25 -63.628906 9.765625 -61.503906 C 9.476562 -60.34375 9.089844 -57.828125 8.511719 -54.152344 L 8.21875 -51.542969 L 21.953125 -51.542969 Z M 7.734375 -47.964844 L 4.449219 -24.5625 L 0.96875 0 C 5.800781 0 8.898438 -0.195312 10.25 -0.484375 C 12.089844 -0.871094 13.34375 -1.644531 14.117188 -2.804688 C 14.699219 -3.675781 15.183594 -4.933594 15.472656 -6.671875 C 15.761719 -7.929688 16.148438 -10.25 16.632812 -13.539062 L 18.664062 -28.429688 L 21.46875 -47.964844 Z M 7.734375 -47.964844 "/></g></g></g><g fill="#2b738a" fill-opacity="1"><g transform="translate(709.854703, 355.051961)"><g><path d="M 19.148438 -47.867188 C 15.664062 -47.867188 13.25 -47.867188 11.894531 -47.675781 C 10.152344 -47.480469 8.898438 -46.902344 8.027344 -46.128906 C 7.15625 -45.355469 6.480469 -43.902344 5.996094 -41.871094 C 5.800781 -40.710938 5.414062 -38.199219 4.835938 -34.328125 C 4.738281 -33.554688 4.351562 -30.65625 3.578125 -25.433594 C 2.804688 -20.308594 2.320312 -16.34375 1.933594 -13.636719 C 1.355469 -9.765625 1.0625 -7.253906 0.96875 -5.898438 L 0.96875 -5.222656 C 0.96875 -3.867188 1.257812 -2.804688 1.644531 -2.128906 C 2.222656 -1.355469 3.191406 -0.773438 4.546875 -0.386719 C 5.898438 -0.195312 8.898438 0 13.539062 0 L 35.199219 0 C 39.164062 0 41.777344 -0.0976562 43.03125 -0.195312 C 44.96875 -0.386719 46.417969 -0.871094 47.289062 -1.546875 C 48.253906 -2.320312 48.933594 -3.675781 49.320312 -5.414062 C 49.707031 -6.769531 50.09375 -9.476562 50.671875 -13.636719 L 15.664062 -13.636719 L 18.082031 -30.75 C 18.277344 -31.71875 18.375 -32.394531 18.375 -32.6875 C 18.566406 -33.265625 18.761719 -33.652344 18.953125 -33.847656 C 19.148438 -34.039062 19.4375 -34.136719 19.824219 -34.136719 C 20.210938 -34.328125 21.179688 -34.328125 22.53125 -34.328125 L 39.839844 -34.328125 C 43.515625 -34.328125 45.933594 -34.425781 47.191406 -34.425781 C 49.511719 -34.621094 51.253906 -35.199219 52.21875 -36.070312 C 53.089844 -36.84375 53.765625 -38.199219 54.152344 -40.035156 C 54.539062 -41.390625 54.925781 -44 55.507812 -47.867188 Z M 19.148438 -47.867188 "/></g></g></g><g fill="#2b738a" fill-opacity="1"><g transform="translate(772.410717, 355.051961)"><g><path d="M 44.097656 -47.964844 L 6.671875 -47.964844 L 6.671875 -46.320312 C 6.671875 -43.804688 6.769531 -41.871094 6.769531 -40.710938 C 6.960938 -38.585938 7.347656 -37.132812 7.929688 -36.265625 C 8.605469 -35.394531 9.765625 -34.8125 11.507812 -34.523438 C 12.667969 -34.425781 15.085938 -34.328125 18.566406 -34.328125 L 39.839844 -34.328125 C 39.746094 -33.265625 39.648438 -32.589844 39.550781 -32.203125 C 39.550781 -31.816406 39.453125 -31.523438 39.261719 -31.332031 C 39.066406 -31.136719 38.777344 -30.945312 38.390625 -30.847656 C 38.199219 -30.847656 37.617188 -30.75 36.84375 -30.75 L 16.632812 -30.75 C 13.054688 -30.75 10.539062 -30.65625 9.1875 -30.460938 C 7.542969 -30.269531 6.285156 -29.6875 5.414062 -28.816406 C 4.640625 -28.042969 3.964844 -26.496094 3.480469 -24.175781 C 3.289062 -23.015625 2.902344 -20.695312 2.417969 -17.214844 L 1.835938 -13.636719 C 1.355469 -9.765625 1.0625 -7.15625 0.96875 -5.800781 L 0.96875 -5.222656 C 0.96875 -3.675781 1.160156 -2.609375 1.742188 -1.835938 C 2.320312 -1.160156 3.289062 -0.675781 4.640625 -0.386719 C 5.996094 -0.195312 8.992188 0 13.636719 0 L 34.621094 0 C 39.453125 0 42.550781 -0.195312 43.902344 -0.386719 C 45.257812 -0.675781 46.320312 -1.0625 47.09375 -1.644531 C 47.964844 -2.320312 48.640625 -3.382812 49.027344 -4.738281 C 49.511719 -6.09375 50.09375 -8.992188 50.671875 -13.636719 L 52.027344 -23.5 L 53.574219 -34.328125 C 54.058594 -37.8125 54.347656 -40.132812 54.347656 -41.292969 C 54.445312 -41.871094 54.445312 -42.257812 54.445312 -42.644531 C 54.445312 -44.675781 53.960938 -46.03125 52.992188 -46.707031 C 52.414062 -47.191406 51.445312 -47.480469 50.09375 -47.675781 C 48.933594 -47.867188 46.902344 -47.964844 44.097656 -47.964844 Z M 18.375 -17.214844 L 37.425781 -17.214844 C 37.328125 -16.148438 37.230469 -15.472656 37.132812 -15.085938 C 37.039062 -14.699219 36.941406 -14.3125 36.746094 -14.117188 C 36.652344 -13.925781 36.457031 -13.828125 36.070312 -13.730469 C 35.875 -13.730469 35.296875 -13.636719 34.523438 -13.636719 L 15.570312 -13.636719 C 15.761719 -14.410156 15.859375 -14.988281 15.859375 -15.277344 C 15.957031 -16.050781 16.050781 -16.535156 16.246094 -16.730469 C 16.441406 -16.921875 16.632812 -17.117188 16.921875 -17.117188 C 17.117188 -17.214844 17.601562 -17.214844 18.375 -17.214844 Z M 18.375 -17.214844 "/></g></g></g><g fill="#2b738a" fill-opacity="1"><g transform="translate(835.353489, 355.051961)"><g><path d="M 22.242188 -67.691406 L 19.535156 -47.867188 L 17.503906 -47.867188 C 14.601562 -47.867188 12.570312 -47.867188 11.3125 -47.675781 C 9.378906 -47.480469 8.027344 -46.902344 7.058594 -46.128906 C 6.1875 -45.257812 5.511719 -43.613281 4.933594 -41.195312 C 4.738281 -40.035156 4.351562 -37.714844 3.867188 -34.234375 L 17.601562 -34.234375 L 17.117188 -30.75 L 15.183594 -17.117188 L 14.699219 -13.539062 C 14.117188 -9.960938 13.730469 -7.542969 13.539062 -6.285156 L 13.539062 -4.835938 C 13.539062 -3.675781 13.730469 -2.707031 14.117188 -2.03125 C 14.796875 -1.0625 16.34375 -0.386719 18.855469 -0.0976562 C 20.210938 -0.0976562 22.53125 0 25.917969 0 L 34.714844 0 C 38.488281 0 41.003906 -0.0976562 42.257812 -0.195312 C 44.191406 -0.484375 45.644531 -0.96875 46.515625 -1.742188 C 47.289062 -2.515625 47.964844 -3.867188 48.449219 -5.609375 C 48.835938 -6.960938 49.222656 -9.574219 49.707031 -13.539062 L 28.429688 -13.539062 L 28.914062 -17.117188 L 30.847656 -30.75 L 31.332031 -34.234375 L 38.875 -34.234375 C 42.9375 -34.234375 45.546875 -34.328125 46.804688 -34.425781 C 48.738281 -34.714844 50.1875 -35.199219 51.058594 -35.78125 C 51.929688 -36.554688 52.605469 -37.714844 53.089844 -39.261719 C 53.476562 -40.617188 53.960938 -43.417969 54.539062 -47.867188 L 33.265625 -47.867188 L 34.136719 -54.058594 C 34.714844 -57.441406 35.007812 -59.570312 35.007812 -60.441406 C 35.199219 -61.308594 35.199219 -61.988281 35.199219 -62.566406 C 35.199219 -63.628906 35.101562 -64.5 34.8125 -65.082031 C 34.234375 -66.433594 32.6875 -67.207031 29.976562 -67.402344 C 28.527344 -67.59375 25.917969 -67.691406 22.242188 -67.691406 Z M 22.242188 -67.691406 "/></g></g></g><g fill="#2b738a" fill-opacity="1"><g transform="translate(897.039354, 355.051961)"><g><path d="M 24.175781 -67.691406 C 19.628906 -67.691406 16.632812 -67.59375 15.277344 -67.402344 C 13.730469 -67.207031 12.476562 -66.628906 11.699219 -65.855469 C 10.925781 -65.082031 10.25 -63.628906 9.765625 -61.503906 C 9.476562 -60.34375 9.089844 -57.828125 8.511719 -54.152344 L 8.21875 -51.542969 L 21.953125 -51.542969 Z M 7.734375 -47.964844 L 4.449219 -24.5625 L 0.96875 0 C 5.800781 0 8.898438 -0.195312 10.25 -0.484375 C 12.089844 -0.871094 13.34375 -1.644531 14.117188 -2.804688 C 14.699219 -3.675781 15.183594 -4.933594 15.472656 -6.671875 C 15.761719 -7.929688 16.148438 -10.25 16.632812 -13.539062 L 18.664062 -28.429688 L 21.46875 -47.964844 Z M 7.734375 -47.964844 "/></g></g></g><g fill="#2b738a" fill-opacity="1"><g transform="translate(926.91651, 355.051961)"><g><path d="M 4.738281 -34.425781 C 3.191406 -22.628906 2.222656 -15.761719 1.835938 -13.730469 C 1.355469 -10.152344 1.0625 -7.734375 0.96875 -6.480469 L 0.96875 -5.320312 C 0.96875 -3.964844 1.257812 -2.902344 1.644531 -2.128906 C 2.222656 -1.355469 3.191406 -0.773438 4.738281 -0.484375 C 6.09375 -0.289062 8.800781 -0.0976562 12.957031 -0.0976562 L 35.683594 -0.0976562 C 40.035156 -0.0976562 42.839844 -0.289062 44.191406 -0.484375 C 46.03125 -0.871094 47.289062 -1.546875 48.0625 -2.707031 C 48.640625 -3.578125 49.125 -4.933594 49.511719 -6.671875 C 49.800781 -7.929688 50.1875 -10.25 50.671875 -13.730469 L 53.574219 -34.425781 C 54.152344 -38.101562 54.445312 -40.617188 54.445312 -41.777344 L 54.445312 -42.742188 C 54.445312 -44.191406 54.25 -45.257812 53.765625 -45.933594 C 53.285156 -46.707031 52.414062 -47.289062 51.253906 -47.480469 C 49.898438 -47.867188 46.902344 -47.964844 42.164062 -47.964844 L 19.921875 -47.964844 C 16.050781 -47.964844 13.441406 -47.964844 12.089844 -47.769531 C 10.152344 -47.578125 8.800781 -46.996094 7.929688 -46.03125 C 6.960938 -45.0625 6.1875 -43.128906 5.609375 -40.132812 C 5.414062 -39.164062 5.125 -37.230469 4.738281 -34.425781 Z M 23.207031 -34.425781 L 39.839844 -34.425781 L 37.425781 -17.214844 C 37.230469 -16.050781 37.132812 -15.375 36.941406 -14.988281 C 36.941406 -14.601562 36.746094 -14.3125 36.554688 -14.117188 C 36.359375 -13.925781 36.070312 -13.828125 35.683594 -13.730469 L 15.570312 -13.730469 L 17.988281 -30.847656 C 18.082031 -31.429688 18.179688 -31.910156 18.179688 -32.105469 C 18.375 -32.976562 18.566406 -33.554688 18.761719 -33.75 C 19.050781 -34.039062 19.535156 -34.234375 20.113281 -34.328125 C 20.597656 -34.425781 21.660156 -34.425781 23.207031 -34.425781 Z M 23.207031 -34.425781 "/></g></g></g><g fill="#2b738a" fill-opacity="1"><g transform="translate(989.859281, 355.051961)"><g><path d="M 5.800781 -34.234375 L 5.320312 -30.75 L 3.382812 -17.117188 L 2.902344 -13.539062 L 0.96875 0 C 5.125 0 7.832031 -0.0976562 9.089844 -0.195312 C 10.832031 -0.484375 12.183594 -0.96875 12.957031 -1.546875 C 13.925781 -2.320312 14.699219 -3.480469 15.085938 -5.125 C 15.472656 -6.480469 16.050781 -9.285156 16.632812 -13.539062 L 17.117188 -17.117188 L 19.050781 -30.75 C 19.242188 -31.816406 19.339844 -32.492188 19.339844 -32.78125 C 19.535156 -33.363281 19.824219 -33.75 20.015625 -33.941406 C 20.308594 -34.136719 20.597656 -34.234375 20.984375 -34.234375 C 21.179688 -34.328125 21.46875 -34.328125 21.757812 -34.328125 C 22.144531 -34.328125 22.628906 -34.328125 23.113281 -34.234375 L 40.808594 -34.234375 L 40.324219 -30.75 L 38.390625 -17.117188 L 37.90625 -13.539062 L 35.972656 0 C 40.710938 0 43.804688 -0.195312 45.160156 -0.386719 C 46.804688 -0.773438 47.964844 -1.355469 48.738281 -2.222656 C 49.511719 -2.996094 49.996094 -4.253906 50.382812 -5.800781 C 50.769531 -7.058594 51.15625 -9.671875 51.640625 -13.539062 L 52.121094 -17.117188 L 54.058594 -30.75 L 54.539062 -34.234375 C 55.121094 -38.488281 55.410156 -41.292969 55.410156 -42.550781 L 55.410156 -43.226562 C 55.3125 -44.871094 54.832031 -46.03125 54.058594 -46.609375 C 53.476562 -47.191406 52.511719 -47.480469 51.253906 -47.675781 C 50.09375 -47.867188 48.253906 -47.867188 45.644531 -47.867188 L 18.46875 -47.867188 C 15.957031 -47.867188 14.117188 -47.867188 12.957031 -47.675781 C 11.410156 -47.480469 10.25 -47.09375 9.476562 -46.515625 C 8.511719 -45.835938 7.734375 -44.582031 7.15625 -42.742188 C 6.867188 -41.484375 6.382812 -38.679688 5.800781 -34.234375 Z M 5.800781 -34.234375 "/></g></g></g><g fill="#2b738a" fill-opacity="1"><g transform="translate(1053.768878, 355.051961)"><g><path d="M 21.46875 -47.964844 L 20.210938 -47.964844 C 16.441406 -47.964844 13.828125 -47.867188 12.476562 -47.578125 C 11.121094 -47.382812 10.058594 -46.996094 9.285156 -46.417969 C 8.316406 -45.644531 7.640625 -44.289062 7.058594 -42.355469 C 6.769531 -41.097656 6.382812 -38.390625 5.800781 -34.328125 L 3.382812 -17.117188 L 17.117188 -17.117188 L 18.277344 -25.433594 L 19.921875 -36.84375 Z M 2.902344 -13.636719 L 0.96875 0 C 5.800781 0 8.800781 -0.195312 10.152344 -0.386719 C 11.894531 -0.773438 13.152344 -1.449219 13.925781 -2.417969 C 14.601562 -3.289062 15.085938 -4.546875 15.472656 -6.285156 C 15.761719 -7.542969 16.148438 -9.960938 16.632812 -13.539062 L 16.632812 -13.636719 Z M 2.902344 -13.636719 "/></g></g></g><g clip-path="url(#c05b9f0255)"><path fill="#f17460" d="M 1042.570312 506.535156 C 1024.132812 506.535156 1009.214844 521.46875 1009.214844 539.910156 C 1009.214844 558.347656 1024.132812 573.285156 1042.570312 573.285156 C 1061.011719 573.285156 1075.964844 558.347656 1075.964844 539.910156 C 1075.964844 521.46875 1061.011719 506.535156 1042.570312 506.535156 Z M 1042.589844 566.609375 C 1027.835938 566.609375 1015.886719 554.660156 1015.886719 539.910156 C 1015.886719 525.15625 1027.835938 513.210938 1042.589844 513.210938 C 1057.339844 513.210938 1069.289062 525.15625 1069.289062 539.910156 C 1069.289062 554.660156 1057.339844 566.609375 1042.589844 566.609375 Z M 1042.589844 566.609375 " fill-opacity="1" fill-rule="nonzero"/></g><path fill="#f17460" d="M 1044.257812 523.222656 L 1039.25 523.222656 L 1039.25 543.246094 L 1056.757812 553.757812 L 1059.277344 549.65625 L 1044.257812 540.742188 Z M 1044.257812 523.222656 " fill-opacity="1" fill-rule="nonzero"/><g fill="#f17460" fill-opacity="1"><g transform="translate(603.315561, 554.403396)"><g><path d="M 12.042969 -27.917969 C 9.457031 -27.917969 7.765625 -27.859375 6.980469 -27.746094 C 5.964844 -27.636719 5.179688 -27.296875 4.613281 -26.789062 C 4.109375 -26.339844 3.714844 -25.382812 3.433594 -24.03125 C 3.320312 -23.359375 3.09375 -22.0625 2.757812 -20.035156 L 1.070312 -7.992188 C 0.789062 -5.742188 0.617188 -4.277344 0.5625 -3.488281 L 0.5625 -3.09375 C 0.5625 -2.308594 0.675781 -1.746094 0.902344 -1.351562 C 1.238281 -0.84375 1.800781 -0.507812 2.589844 -0.28125 C 3.378906 -0.167969 4.839844 -0.0546875 7.089844 -0.0546875 L 28.367188 -0.0546875 L 28.367188 -0.957031 C 28.367188 -2.644531 28.367188 -3.769531 28.253906 -4.445312 C 28.199219 -5.683594 27.972656 -6.472656 27.523438 -6.921875 C 27.183594 -7.375 26.566406 -7.65625 25.664062 -7.765625 C 25.046875 -7.878906 23.640625 -7.9375 21.445312 -7.9375 L 9.0625 -7.9375 C 9.175781 -8.554688 9.230469 -8.949219 9.230469 -9.117188 C 9.285156 -9.457031 9.34375 -9.679688 9.457031 -9.792969 C 9.566406 -9.90625 9.738281 -9.960938 9.90625 -9.960938 C 10.074219 -10.019531 10.355469 -10.019531 10.75 -10.019531 L 22.570312 -10.019531 C 24.539062 -10.019531 25.890625 -10.074219 26.621094 -10.1875 C 27.746094 -10.300781 28.535156 -10.636719 29.042969 -11.085938 C 29.492188 -11.59375 29.886719 -12.382812 30.113281 -13.453125 C 30.335938 -14.183594 30.5625 -15.648438 30.84375 -17.898438 L 31.179688 -20.035156 C 31.40625 -21.835938 31.574219 -23.019531 31.632812 -23.640625 C 31.6875 -24.144531 31.6875 -24.539062 31.6875 -24.878906 C 31.6875 -26.003906 31.460938 -26.789062 30.898438 -27.183594 C 30.449219 -27.523438 29.605469 -27.746094 28.367188 -27.859375 C 27.691406 -27.917969 26.339844 -27.917969 24.3125 -27.917969 Z M 12.15625 -19.980469 L 23.132812 -19.980469 C 23.074219 -19.363281 23.019531 -18.910156 22.964844 -18.6875 C 22.964844 -18.460938 22.90625 -18.347656 22.792969 -18.234375 C 22.683594 -18.125 22.457031 -18.011719 22.121094 -17.953125 L 10.46875 -17.953125 C 10.582031 -18.628906 10.636719 -19.023438 10.636719 -19.191406 C 10.75 -19.417969 10.804688 -19.585938 10.863281 -19.699219 C 10.976562 -19.8125 11.085938 -19.925781 11.199219 -19.925781 C 11.3125 -19.980469 11.652344 -19.980469 12.15625 -19.980469 Z M 12.15625 -19.980469 "/></g></g></g><g fill="#f17460" fill-opacity="1"><g transform="translate(636.061088, 554.403396)"><g><path d="M 2.25 -27.917969 L 3.660156 -17.730469 L 5.066406 -7.9375 C 5.402344 -5.683594 5.683594 -4.164062 5.796875 -3.378906 C 6.078125 -2.476562 6.359375 -1.800781 6.699219 -1.351562 C 7.148438 -0.84375 7.765625 -0.507812 8.609375 -0.28125 C 9.398438 -0.113281 11.257812 0 14.183594 0 L 19.472656 0 C 21.78125 0 23.300781 -0.113281 24.089844 -0.226562 C 24.988281 -0.394531 25.609375 -0.730469 26.058594 -1.183594 C 26.507812 -1.632812 26.789062 -2.363281 27.015625 -3.320312 C 27.242188 -4.109375 27.464844 -5.628906 27.804688 -7.9375 L 29.492188 -19.925781 C 29.828125 -22.289062 30 -23.808594 30 -24.484375 L 30 -24.878906 C 30 -25.890625 29.828125 -26.621094 29.4375 -27.015625 C 29.042969 -27.464844 28.253906 -27.691406 27.070312 -27.804688 C 26.398438 -27.917969 25.328125 -27.917969 23.75 -27.917969 L 22.625 -27.917969 L 21.273438 -18.460938 L 20.09375 -9.960938 C 20.035156 -9.285156 19.980469 -8.894531 19.867188 -8.667969 C 19.8125 -8.441406 19.753906 -8.328125 19.644531 -8.21875 C 19.53125 -8.105469 19.417969 -8.046875 19.191406 -7.992188 C 18.96875 -7.992188 18.574219 -7.9375 17.898438 -7.9375 L 13.058594 -7.9375 L 11.371094 -20.035156 C 11.144531 -22.007812 10.917969 -23.300781 10.75 -23.976562 C 10.523438 -25.382812 10.074219 -26.339844 9.511719 -26.847656 C 9.0625 -27.355469 8.21875 -27.691406 6.980469 -27.804688 C 6.246094 -27.917969 4.671875 -27.917969 2.25 -27.917969 Z M 2.25 -27.917969 "/></g></g></g><g fill="#f17460" fill-opacity="1"><g transform="translate(667.174979, 554.403396)"><g><path d="M 12.042969 -27.917969 C 9.457031 -27.917969 7.765625 -27.859375 6.980469 -27.746094 C 5.964844 -27.636719 5.179688 -27.296875 4.613281 -26.789062 C 4.109375 -26.339844 3.714844 -25.382812 3.433594 -24.03125 C 3.320312 -23.359375 3.09375 -22.0625 2.757812 -20.035156 L 1.070312 -7.992188 C 0.789062 -5.742188 0.617188 -4.277344 0.5625 -3.488281 L 0.5625 -3.09375 C 0.5625 -2.308594 0.675781 -1.746094 0.902344 -1.351562 C 1.238281 -0.84375 1.800781 -0.507812 2.589844 -0.28125 C 3.378906 -0.167969 4.839844 -0.0546875 7.089844 -0.0546875 L 28.367188 -0.0546875 L 28.367188 -0.957031 C 28.367188 -2.644531 28.367188 -3.769531 28.253906 -4.445312 C 28.199219 -5.683594 27.972656 -6.472656 27.523438 -6.921875 C 27.183594 -7.375 26.566406 -7.65625 25.664062 -7.765625 C 25.046875 -7.878906 23.640625 -7.9375 21.445312 -7.9375 L 9.0625 -7.9375 C 9.175781 -8.554688 9.230469 -8.949219 9.230469 -9.117188 C 9.285156 -9.457031 9.34375 -9.679688 9.457031 -9.792969 C 9.566406 -9.90625 9.738281 -9.960938 9.90625 -9.960938 C 10.074219 -10.019531 10.355469 -10.019531 10.75 -10.019531 L 22.570312 -10.019531 C 24.539062 -10.019531 25.890625 -10.074219 26.621094 -10.1875 C 27.746094 -10.300781 28.535156 -10.636719 29.042969 -11.085938 C 29.492188 -11.59375 29.886719 -12.382812 30.113281 -13.453125 C 30.335938 -14.183594 30.5625 -15.648438 30.84375 -17.898438 L 31.179688 -20.035156 C 31.40625 -21.835938 31.574219 -23.019531 31.632812 -23.640625 C 31.6875 -24.144531 31.6875 -24.539062 31.6875 -24.878906 C 31.6875 -26.003906 31.460938 -26.789062 30.898438 -27.183594 C 30.449219 -27.523438 29.605469 -27.746094 28.367188 -27.859375 C 27.691406 -27.917969 26.339844 -27.917969 24.3125 -27.917969 Z M 12.15625 -19.980469 L 23.132812 -19.980469 C 23.074219 -19.363281 23.019531 -18.910156 22.964844 -18.6875 C 22.964844 -18.460938 22.90625 -18.347656 22.792969 -18.234375 C 22.683594 -18.125 22.457031 -18.011719 22.121094 -17.953125 L 10.46875 -17.953125 C 10.582031 -18.628906 10.636719 -19.023438 10.636719 -19.191406 C 10.75 -19.417969 10.804688 -19.585938 10.863281 -19.699219 C 10.976562 -19.8125 11.085938 -19.925781 11.199219 -19.925781 C 11.3125 -19.980469 11.652344 -19.980469 12.15625 -19.980469 Z M 12.15625 -19.980469 "/></g></g></g><g fill="#f17460" fill-opacity="1"><g transform="translate(699.920503, 554.403396)"><g><path d="M 3.378906 -19.980469 L 0.5625 0 C 3.601562 0 5.515625 -0.113281 6.304688 -0.28125 C 7.089844 -0.507812 7.65625 -0.84375 8.046875 -1.292969 C 8.5 -1.800781 8.78125 -2.589844 9.003906 -3.601562 C 9.175781 -4.332031 9.398438 -5.742188 9.679688 -7.878906 L 11.03125 -17.617188 C 11.144531 -18.347656 11.257812 -18.796875 11.3125 -19.023438 C 11.425781 -19.363281 11.539062 -19.585938 11.761719 -19.699219 C 11.933594 -19.8125 12.15625 -19.925781 12.4375 -19.925781 C 12.71875 -19.980469 13.28125 -19.980469 14.128906 -19.980469 L 23.695312 -19.980469 C 26.058594 -19.980469 27.578125 -20.035156 28.308594 -20.09375 C 29.492188 -20.207031 30.335938 -20.488281 30.84375 -20.9375 C 31.40625 -21.386719 31.800781 -22.175781 32.082031 -23.246094 C 32.304688 -24.03125 32.53125 -25.550781 32.871094 -27.859375 L 11.257812 -27.859375 C 9.34375 -27.859375 8.046875 -27.804688 7.261719 -27.691406 C 6.359375 -27.578125 5.628906 -27.242188 5.179688 -26.734375 C 4.726562 -26.285156 4.332031 -25.441406 4.050781 -24.203125 C 3.941406 -23.527344 3.714844 -22.121094 3.378906 -19.980469 Z M 3.378906 -19.980469 "/></g></g></g><g fill="#f17460" fill-opacity="1"><g transform="translate(733.003613, 554.403396)"><g><path d="M 3.828125 -27.917969 L 2.703125 -20.035156 L 1.011719 -7.878906 C 0.730469 -5.742188 0.5625 -4.277344 0.5625 -3.546875 C 0.5625 -3.433594 0.507812 -3.265625 0.507812 -3.09375 C 0.507812 -2.195312 0.675781 -1.574219 0.957031 -1.125 C 1.292969 -0.675781 2.027344 -0.335938 3.039062 -0.167969 C 3.769531 -0.0546875 5.234375 0 7.375 0 L 20.316406 0 C 20.207031 0.902344 20.148438 1.519531 20.035156 1.855469 C 19.980469 2.308594 19.867188 2.644531 19.753906 2.925781 C 19.585938 3.207031 19.25 3.433594 18.796875 3.546875 C 18.460938 3.601562 17.785156 3.660156 16.660156 3.660156 L 6.921875 3.660156 C 5.234375 3.660156 4.050781 3.660156 3.378906 3.769531 C 2.195312 3.882812 1.292969 4.164062 0.730469 4.613281 C 0.167969 5.066406 -0.335938 5.964844 -0.730469 7.261719 C -0.902344 7.9375 -1.238281 9.398438 -1.6875 11.59375 L 18.6875 11.59375 C 20.992188 11.59375 22.511719 11.539062 23.246094 11.480469 C 24.59375 11.3125 25.496094 10.976562 26.003906 10.414062 C 26.453125 9.90625 26.847656 9.117188 27.070312 8.105469 C 27.296875 7.316406 27.523438 5.851562 27.804688 3.660156 L 28.308594 0 L 29.4375 -7.878906 L 31.125 -20.035156 C 31.351562 -21.5 31.460938 -22.511719 31.519531 -23.074219 C 31.632812 -23.808594 31.632812 -24.371094 31.632812 -24.820312 C 31.632812 -25.550781 31.574219 -26.117188 31.351562 -26.507812 C 31.066406 -27.183594 30.28125 -27.636719 29.042969 -27.804688 C 28.308594 -27.917969 26.734375 -27.917969 24.257812 -27.917969 L 23.132812 -20.035156 L 21.726562 -9.90625 C 21.667969 -9.511719 21.613281 -9.230469 21.554688 -9.003906 C 21.5 -8.78125 21.445312 -8.609375 21.386719 -8.5 C 21.273438 -8.273438 21.105469 -8.105469 20.824219 -7.992188 C 20.65625 -7.9375 20.148438 -7.878906 19.304688 -7.878906 L 9.0625 -7.878906 L 10.75 -20.035156 C 11.085938 -22.625 11.257812 -24.144531 11.257812 -24.707031 L 11.257812 -25.046875 C 11.257812 -26.058594 11.085938 -26.734375 10.636719 -27.070312 C 10.1875 -27.578125 9.117188 -27.859375 7.484375 -27.917969 Z M 3.828125 -27.917969 "/></g></g></g><g fill="#f17460" fill-opacity="1"><g transform="translate(765.692879, 554.403396)"><g/></g></g><g fill="#f17460" fill-opacity="1"><g transform="translate(783.134773, 554.403396)"><g><path d="M 2.757812 -19.980469 L 2.476562 -17.898438 C 2.140625 -15.703125 1.914062 -14.238281 1.800781 -13.453125 L 1.800781 -12.777344 C 1.800781 -11.875 2.027344 -11.257812 2.363281 -10.863281 C 2.8125 -10.46875 3.546875 -10.1875 4.671875 -10.074219 C 5.347656 -10.019531 6.472656 -9.960938 7.992188 -9.960938 L 21.78125 -9.960938 C 21.726562 -9.457031 21.667969 -9.117188 21.613281 -8.894531 C 21.613281 -8.609375 21.5 -8.386719 21.386719 -8.21875 C 21.273438 -8.105469 21.105469 -8.046875 20.882812 -7.9375 L 1.070312 -7.9375 C 0.730469 -5.460938 0.5625 -3.828125 0.5625 -3.039062 C 0.5625 -2.195312 0.675781 -1.574219 0.957031 -1.125 C 1.292969 -0.730469 1.800781 -0.449219 2.476562 -0.28125 C 3.265625 -0.113281 5.066406 0 7.992188 0 L 20.375 0 C 23.246094 0 25.101562 -0.113281 25.890625 -0.28125 C 26.734375 -0.449219 27.355469 -0.789062 27.804688 -1.292969 C 28.140625 -1.6875 28.367188 -2.195312 28.589844 -2.984375 C 28.816406 -3.769531 29.15625 -5.460938 29.492188 -7.9375 L 29.773438 -9.960938 C 30.054688 -12.214844 30.222656 -13.675781 30.222656 -14.351562 L 30.222656 -14.691406 C 30.222656 -15.757812 30.054688 -16.492188 29.660156 -16.886719 C 29.265625 -17.390625 28.480469 -17.671875 27.242188 -17.785156 C 26.566406 -17.898438 25.101562 -17.898438 22.851562 -17.898438 L 10.46875 -17.898438 C 10.582031 -18.515625 10.636719 -18.910156 10.636719 -19.078125 C 10.695312 -19.304688 10.75 -19.472656 10.863281 -19.585938 C 10.976562 -19.753906 11.199219 -19.867188 11.425781 -19.925781 C 11.652344 -19.980469 12.214844 -19.980469 13 -19.980469 L 24.03125 -19.980469 C 25.832031 -19.980469 27.128906 -20.035156 27.804688 -20.09375 C 28.589844 -20.207031 29.15625 -20.316406 29.605469 -20.542969 C 30.394531 -20.9375 30.957031 -21.667969 31.292969 -22.792969 C 31.574219 -23.582031 31.914062 -25.269531 32.25 -27.859375 L 11.371094 -27.859375 C 9.34375 -27.859375 7.9375 -27.859375 7.148438 -27.746094 C 6.136719 -27.636719 5.402344 -27.410156 4.898438 -27.015625 C 4.332031 -26.621094 3.882812 -25.832031 3.601562 -24.707031 C 3.378906 -23.976562 3.09375 -22.402344 2.757812 -19.980469 Z M 2.757812 -19.980469 "/></g></g></g><g fill="#f17460" fill-opacity="1"><g transform="translate(815.655251, 554.403396)"><g><path d="M 12.042969 -27.917969 C 9.457031 -27.917969 7.765625 -27.859375 6.980469 -27.746094 C 5.964844 -27.636719 5.179688 -27.296875 4.613281 -26.789062 C 4.109375 -26.339844 3.714844 -25.382812 3.433594 -24.03125 C 3.320312 -23.359375 3.09375 -22.0625 2.757812 -20.035156 L 1.070312 -7.992188 C 0.789062 -5.742188 0.617188 -4.277344 0.5625 -3.488281 L 0.5625 -3.09375 C 0.5625 -2.308594 0.675781 -1.746094 0.902344 -1.351562 C 1.238281 -0.84375 1.800781 -0.507812 2.589844 -0.28125 C 3.378906 -0.167969 4.839844 -0.0546875 7.089844 -0.0546875 L 28.367188 -0.0546875 L 28.367188 -0.957031 C 28.367188 -2.644531 28.367188 -3.769531 28.253906 -4.445312 C 28.199219 -5.683594 27.972656 -6.472656 27.523438 -6.921875 C 27.183594 -7.375 26.566406 -7.65625 25.664062 -7.765625 C 25.046875 -7.878906 23.640625 -7.9375 21.445312 -7.9375 L 9.0625 -7.9375 C 9.175781 -8.554688 9.230469 -8.949219 9.230469 -9.117188 C 9.285156 -9.457031 9.34375 -9.679688 9.457031 -9.792969 C 9.566406 -9.90625 9.738281 -9.960938 9.90625 -9.960938 C 10.074219 -10.019531 10.355469 -10.019531 10.75 -10.019531 L 22.570312 -10.019531 C 24.539062 -10.019531 25.890625 -10.074219 26.621094 -10.1875 C 27.746094 -10.300781 28.535156 -10.636719 29.042969 -11.085938 C 29.492188 -11.59375 29.886719 -12.382812 30.113281 -13.453125 C 30.335938 -14.183594 30.5625 -15.648438 30.84375 -17.898438 L 31.179688 -20.035156 C 31.40625 -21.835938 31.574219 -23.019531 31.632812 -23.640625 C 31.6875 -24.144531 31.6875 -24.539062 31.6875 -24.878906 C 31.6875 -26.003906 31.460938 -26.789062 30.898438 -27.183594 C 30.449219 -27.523438 29.605469 -27.746094 28.367188 -27.859375 C 27.691406 -27.917969 26.339844 -27.917969 24.3125 -27.917969 Z M 12.15625 -19.980469 L 23.132812 -19.980469 C 23.074219 -19.363281 23.019531 -18.910156 22.964844 -18.6875 C 22.964844 -18.460938 22.90625 -18.347656 22.792969 -18.234375 C 22.683594 -18.125 22.457031 -18.011719 22.121094 -17.953125 L 10.46875 -17.953125 C 10.582031 -18.628906 10.636719 -19.023438 10.636719 -19.191406 C 10.75 -19.417969 10.804688 -19.585938 10.863281 -19.699219 C 10.976562 -19.8125 11.085938 -19.925781 11.199219 -19.925781 C 11.3125 -19.980469 11.652344 -19.980469 12.15625 -19.980469 Z M 12.15625 -19.980469 "/></g></g></g><g fill="#f17460" fill-opacity="1"><g transform="translate(848.400781, 554.403396)"><g><path d="M 11.144531 -27.859375 C 9.117188 -27.859375 7.710938 -27.859375 6.921875 -27.746094 C 5.910156 -27.636719 5.179688 -27.296875 4.671875 -26.847656 C 4.164062 -26.398438 3.769531 -25.550781 3.488281 -24.371094 C 3.378906 -23.695312 3.152344 -22.230469 2.8125 -19.980469 C 2.757812 -19.53125 2.53125 -17.839844 2.082031 -14.800781 C 1.632812 -11.820312 1.351562 -9.511719 1.125 -7.9375 C 0.789062 -5.683594 0.617188 -4.222656 0.5625 -3.433594 L 0.5625 -3.039062 C 0.5625 -2.25 0.730469 -1.632812 0.957031 -1.238281 C 1.292969 -0.789062 1.855469 -0.449219 2.644531 -0.226562 C 3.433594 -0.113281 5.179688 0 7.878906 0 L 20.488281 0 C 22.792969 0 24.3125 -0.0546875 25.046875 -0.113281 C 26.171875 -0.226562 27.015625 -0.507812 27.523438 -0.902344 C 28.085938 -1.351562 28.480469 -2.140625 28.703125 -3.152344 C 28.929688 -3.941406 29.15625 -5.515625 29.492188 -7.9375 L 9.117188 -7.9375 L 10.523438 -17.898438 C 10.636719 -18.460938 10.695312 -18.855469 10.695312 -19.023438 C 10.804688 -19.363281 10.917969 -19.585938 11.03125 -19.699219 C 11.144531 -19.8125 11.3125 -19.867188 11.539062 -19.867188 C 11.761719 -19.980469 12.324219 -19.980469 13.113281 -19.980469 L 23.1875 -19.980469 C 25.328125 -19.980469 26.734375 -20.035156 27.464844 -20.035156 C 28.816406 -20.148438 29.828125 -20.488281 30.394531 -20.992188 C 30.898438 -21.445312 31.292969 -22.230469 31.519531 -23.300781 C 31.742188 -24.089844 31.96875 -25.609375 32.304688 -27.859375 Z M 11.144531 -27.859375 "/></g></g></g><g fill="#f17460" fill-opacity="1"><g transform="translate(880.921258, 554.403396)"><g><path d="M 2.757812 -20.035156 C 1.855469 -13.171875 1.292969 -9.175781 1.070312 -7.992188 C 0.789062 -5.910156 0.617188 -4.503906 0.5625 -3.769531 L 0.5625 -3.09375 C 0.5625 -2.308594 0.730469 -1.6875 0.957031 -1.238281 C 1.292969 -0.789062 1.855469 -0.449219 2.757812 -0.28125 C 3.546875 -0.167969 5.121094 -0.0546875 7.542969 -0.0546875 L 20.769531 -0.0546875 C 23.300781 -0.0546875 24.933594 -0.167969 25.722656 -0.28125 C 26.789062 -0.507812 27.523438 -0.902344 27.972656 -1.574219 C 28.308594 -2.082031 28.589844 -2.871094 28.816406 -3.882812 C 28.984375 -4.613281 29.210938 -5.964844 29.492188 -7.992188 L 31.179688 -20.035156 C 31.519531 -22.175781 31.6875 -23.640625 31.6875 -24.3125 L 31.6875 -24.878906 C 31.6875 -25.722656 31.574219 -26.339844 31.292969 -26.734375 C 31.011719 -27.183594 30.503906 -27.523438 29.828125 -27.636719 C 29.042969 -27.859375 27.296875 -27.917969 24.539062 -27.917969 L 11.59375 -27.917969 C 9.34375 -27.917969 7.824219 -27.917969 7.035156 -27.804688 C 5.910156 -27.691406 5.121094 -27.355469 4.613281 -26.789062 C 4.050781 -26.226562 3.601562 -25.101562 3.265625 -23.359375 C 3.152344 -22.792969 2.984375 -21.667969 2.757812 -20.035156 Z M 13.507812 -20.035156 L 23.1875 -20.035156 L 21.78125 -10.019531 C 21.667969 -9.34375 21.613281 -8.949219 21.5 -8.722656 C 21.5 -8.5 21.386719 -8.328125 21.273438 -8.21875 C 21.164062 -8.105469 20.992188 -8.046875 20.769531 -7.992188 L 9.0625 -7.992188 L 10.46875 -17.953125 C 10.523438 -18.292969 10.582031 -18.574219 10.582031 -18.6875 C 10.695312 -19.191406 10.804688 -19.53125 10.917969 -19.644531 C 11.085938 -19.8125 11.371094 -19.925781 11.707031 -19.980469 C 11.988281 -20.035156 12.605469 -20.035156 13.507812 -20.035156 Z M 13.507812 -20.035156 "/></g></g></g><g fill="#f17460" fill-opacity="1"><g transform="translate(913.666788, 554.403396)"><g><path d="M 3.378906 -19.925781 L 3.09375 -17.898438 L 1.96875 -9.960938 L 1.6875 -7.878906 L 0.5625 0 C 2.984375 0 4.558594 -0.0546875 5.289062 -0.113281 C 6.304688 -0.28125 7.089844 -0.5625 7.542969 -0.902344 C 8.105469 -1.351562 8.554688 -2.027344 8.78125 -2.984375 C 9.003906 -3.769531 9.34375 -5.402344 9.679688 -7.878906 L 9.960938 -9.960938 L 11.085938 -17.898438 C 11.199219 -18.515625 11.257812 -18.910156 11.257812 -19.078125 C 11.371094 -19.417969 11.539062 -19.644531 11.652344 -19.753906 C 11.820312 -19.867188 11.988281 -19.925781 12.214844 -19.925781 C 12.324219 -19.980469 12.496094 -19.980469 12.664062 -19.980469 C 12.890625 -19.980469 13.171875 -19.980469 13.453125 -19.925781 L 23.75 -19.925781 L 23.46875 -17.898438 L 22.34375 -9.960938 L 22.0625 -7.878906 L 20.9375 0 C 23.695312 0 25.496094 -0.113281 26.285156 -0.226562 C 27.242188 -0.449219 27.917969 -0.789062 28.367188 -1.292969 C 28.816406 -1.746094 29.097656 -2.476562 29.324219 -3.378906 C 29.546875 -4.109375 29.773438 -5.628906 30.054688 -7.878906 L 30.335938 -9.960938 L 31.460938 -17.898438 L 31.742188 -19.925781 C 32.082031 -22.402344 32.25 -24.03125 32.25 -24.765625 L 32.25 -25.160156 C 32.195312 -26.117188 31.914062 -26.789062 31.460938 -27.128906 C 31.125 -27.464844 30.5625 -27.636719 29.828125 -27.746094 C 29.15625 -27.859375 28.085938 -27.859375 26.566406 -27.859375 L 10.75 -27.859375 C 9.285156 -27.859375 8.21875 -27.859375 7.542969 -27.746094 C 6.640625 -27.636719 5.964844 -27.410156 5.515625 -27.070312 C 4.953125 -26.679688 4.503906 -25.945312 4.164062 -24.878906 C 3.996094 -24.144531 3.714844 -22.511719 3.378906 -19.925781 Z M 3.378906 -19.925781 "/></g></g></g><g fill="#f17460" fill-opacity="1"><g transform="translate(946.974951, 554.403396)"><g><path d="M 24.765625 -31.460938 L 24.257812 -27.917969 L 11.144531 -27.917969 C 9.003906 -27.917969 7.484375 -27.859375 6.699219 -27.691406 C 5.796875 -27.578125 5.066406 -27.242188 4.613281 -26.789062 C 4.164062 -26.339844 3.828125 -25.609375 3.546875 -24.59375 C 3.378906 -23.863281 3.152344 -22.34375 2.8125 -19.980469 C 2.589844 -18.628906 2.308594 -16.660156 1.914062 -13.957031 C 1.574219 -11.257812 1.292969 -9.285156 1.125 -7.9375 C 0.902344 -6.136719 0.730469 -4.953125 0.617188 -4.277344 C 0.617188 -3.828125 0.5625 -3.378906 0.5625 -3.039062 C 0.5625 -2.140625 0.789062 -1.464844 1.125 -1.011719 C 1.464844 -0.675781 2.027344 -0.394531 2.8125 -0.226562 C 3.601562 -0.113281 5.289062 0 7.878906 0 L 20.488281 0 C 23.019531 0 24.707031 -0.0546875 25.496094 -0.167969 C 26.339844 -0.335938 26.960938 -0.5625 27.410156 -0.84375 C 28.027344 -1.292969 28.480469 -2.140625 28.761719 -3.265625 C 28.984375 -3.996094 29.210938 -5.570312 29.492188 -7.9375 L 29.773438 -10.019531 L 33.882812 -39.398438 C 31.460938 -39.398438 29.886719 -39.398438 29.097656 -39.285156 C 28.027344 -39.171875 27.242188 -38.835938 26.734375 -38.386719 C 26.285156 -37.992188 25.890625 -37.257812 25.609375 -36.246094 C 25.382812 -35.457031 25.101562 -33.882812 24.765625 -31.460938 Z M 12.71875 -19.980469 L 23.132812 -19.980469 L 21.78125 -10.019531 C 21.667969 -9.457031 21.613281 -9.117188 21.5 -8.894531 C 21.445312 -8.554688 21.332031 -8.328125 21.164062 -8.21875 C 21.050781 -8.105469 20.882812 -8.046875 20.65625 -7.992188 C 20.429688 -7.992188 19.980469 -7.9375 19.191406 -7.9375 L 9.117188 -7.9375 L 10.523438 -17.898438 C 10.636719 -18.460938 10.695312 -18.855469 10.695312 -19.023438 C 10.804688 -19.363281 10.863281 -19.53125 10.976562 -19.644531 C 11.085938 -19.8125 11.3125 -19.925781 11.539062 -19.925781 C 11.761719 -19.980469 12.15625 -19.980469 12.71875 -19.980469 Z M 12.71875 -19.980469 "/></g></g></g></svg>